<svg width="81" height="81" viewBox="0 0 81 81" fill="none" xmlns="http://www.w3.org/2000/svg">
<g clip-path="url(#clip0_381_312)">
<path d="M74.2348 18.0472H69.3533L64.6542 7.85894C64.2896 7.06899 63.4794 6.54236 62.6084 6.54236H40.8545C39.9835 6.54236 39.1733 7.04874 38.8087 7.85894L34.1095 18.0472H24.0023V12.6391C24.0023 11.4036 22.9895 10.3908 21.7539 10.3908H10.168C8.93248 10.3908 7.91973 11.4036 7.91973 12.6391V18.0472H6.74494C3.018 18.0472 0 21.0855 0 24.7922V67.7127C0 71.4396 3.03826 74.4576 6.74494 74.4576H74.2551C77.982 74.4576 81 71.4193 81 67.7127V24.7922C80.9797 21.0855 77.9415 18.0472 74.2348 18.0472ZM42.2926 11.0592H61.1703L64.3908 18.0472H39.0518L42.2926 11.0592ZM12.3961 14.8874H19.4854V18.0472H12.3961V14.8874ZM74.2348 69.961H6.70443C5.46887 69.961 4.45611 68.9482 4.45611 67.7127V45.979H7.96024C9.1958 45.979 10.2086 44.9662 10.2086 43.7307C10.2086 42.4951 9.1958 41.4823 7.96024 41.4823H4.45611V36.9857H12.4569C13.6924 36.9857 14.7052 35.973 14.7052 34.7374C14.7052 33.5019 13.6924 32.4891 12.4569 32.4891H4.45611V24.8124C4.45611 23.5769 5.46887 22.5641 6.70443 22.5641H74.2146C75.4501 22.5641 76.4629 23.5769 76.4629 24.8124V67.7127H76.4831C76.4831 68.9482 75.4704 69.961 74.2348 69.961Z" fill="white" fill-opacity="0.5"/>
<path d="M51.7313 26.4937C40.8341 26.4937 31.9624 35.3654 31.9624 46.2626C31.9624 57.1598 40.8341 66.0315 51.7313 66.0315C62.6286 66.0315 71.5003 57.1598 71.5003 46.2626C71.48 35.3654 62.6083 26.4937 51.7313 26.4937ZM51.7313 61.5147C43.3255 61.5147 36.4793 54.6684 36.4793 46.2626C36.4793 37.8567 43.3255 31.0105 51.7313 31.0105C60.1372 31.0105 66.9834 37.8567 66.9834 46.2626C66.9834 54.6684 60.1372 61.5147 51.7313 61.5147Z" fill="white" fill-opacity="0.5"/>
<path d="M51.7315 35.5071C45.7968 35.5071 40.9761 40.3278 40.9761 46.2625C40.9761 52.1973 45.7968 57.018 51.7315 57.018C57.6662 57.018 62.487 52.1973 62.487 46.2625C62.487 40.3278 57.646 35.5071 51.7315 35.5071ZM51.7315 52.5213C48.2882 52.5213 45.4727 49.7059 45.4727 46.2625C45.4727 42.8192 48.2882 40.0037 51.7315 40.0037C55.1749 40.0037 57.9903 42.8192 57.9903 46.2625C57.9903 49.7059 55.1749 52.5213 51.7315 52.5213Z" fill="white" fill-opacity="0.5"/>
<path d="M71.6625 25.886H69.6572C68.4217 25.886 67.4089 26.8987 67.4089 28.1343C67.4089 29.3699 68.4217 30.3826 69.6572 30.3826H71.6625C72.8981 30.3826 73.9108 29.3699 73.9108 28.1343C73.9108 26.8987 72.9183 25.886 71.6625 25.886Z" fill="white" fill-opacity="0.5"/>
<path d="M23.739 28.114C22.5035 28.114 21.4907 29.1268 21.4907 30.3623V62.1425C21.4907 63.3781 22.5035 64.3908 23.739 64.3908C24.9746 64.3908 25.9873 63.3781 25.9873 62.1425V30.3623C25.9873 29.1268 24.9746 28.114 23.739 28.114Z" fill="white" fill-opacity="0.5"/>
</g>
<defs>
<clipPath id="clip0_381_312">
<rect width="81" height="81" fill="white"/>
</clipPath>
</defs>
</svg>
