<svg width="98" height="98" viewBox="0 0 98 98" fill="none" xmlns="http://www.w3.org/2000/svg">
<g clip-path="url(#clip0_112_64)">
<path d="M95.9583 28.5833C97.0853 28.5833 98 29.498 98 30.625V32.7116C98 35.9497 94.2188 36.75 91.4013 36.75L86.9668 28.5833H95.9583ZM90.0743 42.8995C92.6835 47.7423 93.9371 52.0952 93.9371 57.869C93.9371 63.4632 92.316 68.2121 89.8333 74.1248V81.6667C89.8333 83.9207 88.004 85.75 85.75 85.75H79.625C77.371 85.75 75.5417 83.9207 75.5417 81.6667V77.5833H22.4583V81.6667C22.4583 83.9207 20.629 85.75 18.375 85.75H12.25C9.996 85.75 8.16667 83.9207 8.16667 81.6667V74.1248C5.684 68.2121 4.06292 63.4632 4.06292 57.869C4.06292 52.0952 5.3165 47.7423 7.92575 42.8995C11.3108 36.6234 15.484 28.7998 19.8899 21.4538C23.2709 15.8107 25.0431 14.4836 29.1918 13.7404C35.4474 12.6175 41.1069 12.25 49 12.25C56.8931 12.25 62.5526 12.6175 68.8083 13.7404C72.9569 14.4836 74.7291 15.8107 78.1101 21.4538C82.516 28.7998 86.6892 36.6234 90.0743 42.8995ZM24.5 55.125C24.5 51.744 21.756 49 18.375 49C14.994 49 12.25 51.744 12.25 55.125C12.25 58.506 14.994 61.25 18.375 61.25C21.756 61.25 24.5 58.506 24.5 55.125ZM65.3333 59.2083C65.3333 58.0813 64.4187 57.1667 63.2917 57.1667H34.7083C33.5813 57.1667 32.6667 58.0813 32.6667 59.2083C32.6667 60.3353 33.5813 61.25 34.7083 61.25H63.2917C64.4187 61.25 65.3333 60.3353 65.3333 59.2083ZM77.3424 36.6397C77.3424 36.6397 74.3207 29.1836 70.6825 23.8099C69.8577 22.5931 68.5796 21.7601 67.1341 21.4987C60.9642 20.3881 55.5578 20.0328 49 20.0328C42.4422 20.0328 37.0358 20.3881 30.8659 21.4987C29.4204 21.756 28.1423 22.589 27.3175 23.8099C23.6793 29.1795 20.6576 36.6397 20.6576 36.6397C27.3543 37.9178 38.2527 38.6692 49 38.6692C59.7473 38.6692 70.6458 37.9178 77.3424 36.6397ZM85.75 55.125C85.75 51.744 83.006 49 79.625 49C76.244 49 73.5 51.744 73.5 55.125C73.5 58.506 76.244 61.25 79.625 61.25C83.006 61.25 85.75 58.506 85.75 55.125ZM11.0332 28.5833H2.04167C0.914667 28.5833 0 29.498 0 30.625V32.7116C0 35.9497 3.78117 36.75 6.59867 36.75L11.0332 28.5833Z" fill="#23228A"/>
</g>
<defs>
<clipPath id="clip0_112_64">
<rect width="98" height="98" fill="white"/>
</clipPath>
</defs>
</svg>
