<svg width="91" height="96" viewBox="0 0 91 96" fill="none" xmlns="http://www.w3.org/2000/svg">
<g clip-path="url(#clip0_380_281)">
<path d="M13.4954 0H60.1567C63.8679 0 67.2418 1.50781 69.6898 3.94531C72.1378 6.38281 73.6521 9.74219 73.6521 13.4375V43.4062C73.6521 47.1016 72.1378 50.4609 69.6898 52.8984C67.2418 55.3359 63.8679 56.8438 60.1567 56.8438H36.8221L16.3279 74.3828C15.3785 75.1953 13.9427 75.0859 13.1267 74.1328C12.7265 73.6641 12.546 73.0859 12.5853 72.5156L13.6759 56.8359H13.4954C9.78419 56.8359 6.41033 55.3281 3.96232 52.8906C1.51431 50.4609 0 47.1016 0 43.4062V13.4375C0 9.74219 1.51431 6.38281 3.96232 3.94531C6.40248 1.50781 9.77634 0 13.4954 0ZM80.2743 21.8594C82.9184 22.3672 85.288 23.6641 87.124 25.4922C89.5171 27.875 91.0078 31.1641 91.0078 34.7891V64.7578C91.0078 68.3828 89.5249 71.6719 87.124 74.0547C84.7309 76.4375 81.4277 77.9219 77.787 77.9219H77.3084L78.4226 93.8906C78.454 94.3906 78.3049 94.9062 77.9518 95.3125C77.2378 96.1484 75.9746 96.2422 75.1429 95.5312L54.5702 77.4062H27.4695L40.8158 63.8906H69.0935C75.2606 63.8906 80.3135 58.8672 80.3135 52.7188V22.7422C80.3057 22.4453 80.2978 22.1484 80.2743 21.8594ZM20.149 34.125C18.8936 34.125 17.8736 33.1094 17.8736 31.8594C17.8736 30.6094 18.8936 29.5938 20.149 29.5938H43.9621C45.2175 29.5938 46.2375 30.6094 46.2375 31.8594C46.2375 33.1094 45.2175 34.125 43.9621 34.125H20.149ZM20.149 22.9062C18.8936 22.9062 17.8736 21.8906 17.8736 20.6406C17.8736 19.3906 18.8936 18.375 20.149 18.375H53.9033C55.1586 18.375 56.1786 19.3906 56.1786 20.6406C56.1786 21.8906 55.1586 22.9062 53.9033 22.9062H20.149ZM60.1488 4.53125H13.4954C11.0396 4.53125 8.80341 5.53125 7.17925 7.14844C5.5551 8.76562 4.55078 10.9844 4.55078 13.4375V43.4062C4.55078 45.8516 5.5551 48.0781 7.17925 49.6953C8.80341 51.3125 11.0396 52.3125 13.4954 52.3125H16.1161V52.3203L16.2651 52.3281C17.5127 52.4141 18.4621 53.4922 18.3758 54.7344L17.4891 67.4375L34.3898 52.9688C34.7978 52.5625 35.3627 52.3125 35.9904 52.3125H60.1488C62.6047 52.3125 64.8408 51.3125 66.465 49.6953C68.0891 48.0781 69.0935 45.8516 69.0935 43.4062V13.4375C69.0935 10.9922 68.0891 8.76562 66.465 7.14844C64.8487 5.53125 62.6125 4.53125 60.1488 4.53125Z" fill="#23228A"/>
</g>
<defs>
<clipPath id="clip0_380_281">
<rect width="91" height="96" fill="white"/>
</clipPath>
</defs>
</svg>
