<svg width="53" height="53" viewBox="0 0 53 53" fill="none" xmlns="http://www.w3.org/2000/svg">
<g clip-path="url(#clip0_86_22)">
<path d="M13.855 0H12.524C12.3542 0 12.1931 0.0356866 12.0371 0.0863945C11.2574 0.339239 10.6812 1.17158 10.6812 2.17002V3.08624V5.43139V6.65151C10.6812 6.87821 10.7189 7.09242 10.7737 7.29751C11.0083 8.17847 11.6987 8.82153 12.524 8.82153H13.855C14.873 8.82153 15.6978 7.85009 15.6978 6.65151V5.43139V3.08624V2.17002C15.6978 0.971438 14.873 0 13.855 0Z" fill="white"/>
<path d="M40.053 0H38.722C37.704 0 36.8792 0.971438 36.8792 2.17002V3.08624V5.43139V6.65151C36.8792 7.85009 37.704 8.82153 38.722 8.82153H40.053C41.071 8.82153 41.8958 7.85009 41.8958 6.65151V5.43139V3.08624V2.17002C41.8954 0.971438 41.0705 0 40.053 0Z" fill="white"/>
<path d="M46.8514 5.4314H43.5559V6.65151C43.5559 8.76379 41.9841 10.4821 40.0525 10.4821H38.7215C36.7898 10.4821 35.218 8.76379 35.218 6.65151V5.4314H17.3583V6.65151C17.3583 8.76379 15.7866 10.4821 13.8549 10.4821H12.5239C10.5921 10.4821 9.02045 8.76379 9.02045 6.65151V5.4314H6.14894C4.31981 5.4314 2.83643 6.82213 2.83643 8.53673V49.8948C2.83643 51.6126 4.31972 53.0001 6.14894 53.0001H46.851C48.6818 53.0001 50.1634 51.6122 50.1634 49.8948V8.53717C50.1638 6.82256 48.6822 5.4314 46.8514 5.4314ZM45.8243 48.4417L7.05517 48.4268V15.0836H45.8243V48.4417Z" fill="white"/>
<path d="M30.6519 23.1188H40.848C41.733 23.1188 42.4489 22.235 42.4489 21.1427C42.4489 20.0504 41.7327 19.1666 40.848 19.1666H30.6519C29.7668 19.1666 29.051 20.0504 29.051 21.1427C29.051 22.2346 29.7668 23.1188 30.6519 23.1188Z" fill="white"/>
<path d="M30.6519 30.2569H40.848C41.733 30.2569 42.4489 29.3731 42.4489 28.2808C42.4489 27.1886 41.7327 26.3047 40.848 26.3047H30.6519C29.7668 26.3047 29.051 27.1886 29.051 28.2808C29.051 29.3731 29.7668 30.2569 30.6519 30.2569Z" fill="white"/>
<path d="M30.6519 37.395H40.848C41.733 37.395 42.4489 36.5111 42.4489 35.4189C42.4489 34.3267 41.7327 33.4427 40.848 33.4427H30.6519C29.7668 33.4427 29.051 34.3267 29.051 35.4189C29.051 36.5111 29.7668 37.395 30.6519 37.395Z" fill="white"/>
<path d="M30.6519 44.5335H40.848C41.733 44.5335 42.4489 43.6496 42.4489 42.5574C42.4489 41.4651 41.7327 40.5812 40.848 40.5812H30.6519C29.7668 40.5812 29.051 41.4651 29.051 42.5574C29.051 43.6496 29.7668 44.5335 30.6519 44.5335Z" fill="white"/>
<path d="M12.5928 23.1188H22.7889C23.674 23.1188 24.3897 22.235 24.3897 21.1427C24.3897 20.0504 23.6735 19.1666 22.7889 19.1666H12.5928C11.7077 19.1666 10.9919 20.0504 10.9919 21.1427C10.992 22.2346 11.7077 23.1188 12.5928 23.1188Z" fill="white"/>
<path d="M12.5928 30.2569H22.7889C23.674 30.2569 24.3897 29.3731 24.3897 28.2808C24.3897 27.1886 23.6735 26.3047 22.7889 26.3047H12.5928C11.7077 26.3047 10.9919 27.1886 10.9919 28.2808C10.992 29.3731 11.7077 30.2569 12.5928 30.2569Z" fill="white"/>
<path d="M12.5928 37.395H22.7889C23.674 37.395 24.3897 36.5111 24.3897 35.4189C24.3897 34.3267 23.6735 33.4427 22.7889 33.4427H12.5928C11.7077 33.4427 10.9919 34.3267 10.9919 35.4189C10.9919 36.5111 11.7077 37.395 12.5928 37.395Z" fill="white"/>
<path d="M12.5928 44.5335H22.7889C23.674 44.5335 24.3897 43.6496 24.3897 42.5574C24.3897 41.4651 23.6735 40.5812 22.7889 40.5812H12.5928C11.7077 40.5812 10.9919 41.4651 10.9919 42.5574C10.992 43.6496 11.7077 44.5335 12.5928 44.5335Z" fill="white"/>
</g>
<defs>
<clipPath id="clip0_86_22">
<rect width="53" height="53" fill="white"/>
</clipPath>
</defs>
</svg>
