<svg width="58" height="58" viewBox="0 0 58 58" fill="none" xmlns="http://www.w3.org/2000/svg">
<g clip-path="url(#clip0_88_152)">
<path d="M3.71789 9.3684C4.55957 9.08067 5.46469 9.09653 6.34375 9.09766C21.6741 9.09766 37.0056 9.09766 52.3371 9.09766C52.7177 9.10106 53.0972 9.13278 53.4755 9.17696C55.4364 9.45903 57.1651 10.9419 57.7361 12.8405C57.9082 13.3253 57.9479 13.8419 58 14.3505V43.6315C57.949 44.1457 57.9105 44.668 57.7361 45.1585C57.2331 46.8169 55.8556 48.1718 54.1949 48.6589C53.5979 48.8582 52.9613 48.882 52.3371 48.9024C37.0056 48.9024 21.6741 48.9024 6.34375 48.9024C5.46469 48.9036 4.5607 48.9194 3.71789 48.6317C2.09684 48.1253 0.758984 46.7875 0.265078 45.1596C0.0917578 44.6748 0.0521094 44.1582 0 43.6507V14.3686C0.0498438 13.8543 0.0894922 13.3321 0.265078 12.8405C0.757852 11.2126 2.0957 9.8759 3.71789 9.3684ZM4.79859 12.5131C4.04867 12.7147 3.45621 13.399 3.36332 14.1693C3.32367 14.5046 3.3418 14.8422 3.3384 15.1797C3.3384 24.3929 3.3384 33.6061 3.3384 42.8204C3.3418 43.1568 3.32367 43.4955 3.36332 43.8308C3.46074 44.6544 4.1325 45.3749 4.95039 45.5221C5.37293 45.5901 5.8034 45.5618 6.23047 45.5674C21.4102 45.5674 36.5898 45.5674 51.7695 45.5674C52.1955 45.5618 52.6259 45.5901 53.0496 45.5221C53.8675 45.3749 54.5393 44.6532 54.6367 43.8297C54.6763 43.4944 54.6582 43.1568 54.6616 42.8215C54.6616 33.6072 54.6616 24.394 54.6616 15.1797C54.6582 14.8433 54.6763 14.5057 54.6367 14.1704C54.5393 13.3468 53.8675 12.6252 53.0496 12.478C52.6259 12.4089 52.1955 12.4372 51.7695 12.4327C36.5525 12.4327 21.3343 12.4338 6.11719 12.4327C5.67766 12.4383 5.22906 12.4021 4.79859 12.5131Z" fill="white"/>
<path d="M18.6132 15.9093C21.0352 15.7632 23.4639 17.0387 24.7429 19.0948C25.9844 21.0149 26.1498 23.5728 25.1699 25.6379C24.3079 27.5331 22.5327 28.9842 20.5005 29.4419C18.3413 29.955 15.95 29.3354 14.3255 27.8208C12.9752 26.5974 12.1426 24.8155 12.0973 22.9905C12.0202 21.127 12.76 19.2488 14.0831 17.9359C15.2657 16.7215 16.9208 15.9863 18.6132 15.9093ZM18.2688 19.3066C17.2595 19.5037 16.3532 20.1664 15.8673 21.0738C15.4413 21.8215 15.3382 22.7311 15.5274 23.566C15.7551 24.5674 16.4563 25.4442 17.3739 25.9007C18.1952 26.3232 19.1864 26.3867 20.0598 26.0944C21.3875 25.6696 22.3866 24.3805 22.4512 22.986C22.5633 21.6289 21.7828 20.2604 20.573 19.6442C19.874 19.2658 19.0471 19.1639 18.2688 19.3066Z" fill="white"/>
<path d="M32.6783 18.6382C32.8109 18.6269 32.9434 18.6212 33.0782 18.6223C38.0263 18.6269 42.9745 18.6212 47.9237 18.6246C48.412 18.6167 48.9251 18.8194 49.1834 19.2533C49.5629 19.8254 49.3941 20.6818 48.8096 21.0522C48.3848 21.3456 47.841 21.2912 47.3516 21.2958C42.5565 21.2946 37.7601 21.2946 32.9649 21.2958C32.5956 21.2935 32.2025 21.2335 31.9114 20.991C31.396 20.598 31.2578 19.8073 31.6135 19.2646C31.8412 18.8987 32.249 18.6609 32.6783 18.6382Z" fill="white"/>
<path d="M38.3185 26.4467C38.749 26.3108 39.2044 26.3516 39.6484 26.3482C42.178 26.3482 44.7087 26.3482 47.2383 26.3482C47.6563 26.3516 48.0822 26.3165 48.49 26.4297C49.0825 26.6212 49.4846 27.2691 49.3714 27.8865C49.3079 28.3793 48.9239 28.8064 48.4492 28.9446C48.0539 29.0454 47.6416 29.0148 47.2383 29.0182C44.7076 29.0171 42.178 29.0182 39.6484 29.0182C39.2214 29.0137 38.7841 29.0499 38.3684 28.9321C37.9084 28.7781 37.5346 28.3533 37.4848 27.8661C37.3817 27.2714 37.7589 26.654 38.3185 26.4467Z" fill="white"/>
<path d="M16.1244 30.8669C17.5835 30.8465 19.0437 30.8635 20.5039 30.8579C21.2867 30.8635 22.0774 30.825 22.8499 30.9757C23.8876 31.183 24.8833 31.6203 25.716 32.2784C27.0334 33.298 27.9453 34.825 28.207 36.4721C28.3362 37.2594 28.2908 38.0614 28.2999 38.8555C28.2931 39.4253 28.3146 39.9951 28.2886 40.5638C28.2467 41.4055 27.4662 42.1294 26.6211 42.0976C25.7669 42.118 24.991 41.3726 24.9694 40.5196C24.9389 39.4786 24.9864 38.4353 24.9457 37.3942C24.9071 36.0858 24.0043 34.8646 22.7786 34.4194C22.2733 34.2144 21.7217 34.1917 21.1836 34.1929C19.5976 34.1974 18.0117 34.1883 16.4258 34.1974C15.6328 34.1906 14.8353 34.4534 14.2213 34.9598C13.4941 35.5488 13.0262 36.4551 12.9933 37.3919C12.9537 38.4205 12.9967 39.4503 12.9718 40.4788C12.9639 41.1823 12.4587 41.8405 11.7824 42.0319C11.0551 42.2608 10.2032 41.9096 9.84979 41.2356C9.55979 40.7167 9.64815 40.1039 9.63456 39.5352C9.65042 38.5905 9.58925 37.6412 9.70139 36.7009C9.9121 34.9394 10.8818 33.2946 12.2933 32.2252C13.3876 31.3903 14.7469 30.9009 16.1244 30.8669Z" fill="white"/>
<path d="M38.6788 31.5489C38.8873 31.5217 39.098 31.5263 39.3087 31.5251C42.2166 31.5342 45.1234 31.5183 48.0313 31.5331C48.6034 31.5319 49.1653 31.9024 49.3273 32.4608C49.4904 32.9774 49.3148 33.5925 48.8685 33.9108C48.5694 34.1476 48.1741 34.1963 47.8048 34.1986C45.0487 34.1963 42.2914 34.1975 39.5353 34.1975C39.1558 34.1941 38.7661 34.2269 38.3979 34.1159C37.7737 33.946 37.3535 33.255 37.4951 32.6217C37.5778 32.0462 38.1034 31.5852 38.6788 31.5489Z" fill="white"/>
<path d="M32.5366 36.7395C32.6782 36.7157 32.8198 36.7043 32.9636 36.7043C37.9525 36.7066 42.9403 36.7021 47.9292 36.7066C48.3903 36.7055 48.8842 36.8754 49.1447 37.2775C49.5627 37.8338 49.4223 38.714 48.8445 39.1048C48.5534 39.337 48.166 39.3744 47.808 39.3778C43.0491 39.3744 38.2901 39.3766 33.5312 39.3766C33.1132 39.3721 32.685 39.4106 32.2805 39.2815C31.8614 39.1184 31.5159 38.7445 31.4423 38.2948C31.2757 37.5879 31.815 36.8222 32.5366 36.7395Z" fill="white"/>
</g>
<defs>
<clipPath id="clip0_88_152">
<rect width="58" height="58" fill="white"/>
</clipPath>
</defs>
</svg>
