<svg width="52" height="61" viewBox="0 0 52 61" fill="none" xmlns="http://www.w3.org/2000/svg">
<path d="M22.335 0H29.5746C30.5576 0.0639844 31.5303 0.325846 32.3711 0.799805C33.5792 1.46216 34.4962 2.52975 34.9606 3.74427C38.5707 3.74427 42.1808 3.74427 45.7909 3.74427C47.1607 3.73005 48.5344 4.14121 49.6144 4.91732C51.1006 5.95647 52.0061 7.64495 51.997 9.35831C52.0022 24.5653 51.9983 39.7734 51.9996 54.9816C52.019 56.5041 51.3335 58.0208 50.1344 59.0766C49.1061 60.0031 47.7104 60.5529 46.2785 60.6667H5.85086C4.87041 60.6039 3.899 60.3586 3.05178 59.8965C1.20857 58.9367 0.00304679 57.0433 0.00434027 55.1C-0.00212713 39.9322 0.00434043 24.7643 0.00045999 9.59766C-0.0060074 8.99573 0.054786 8.39025 0.24234 7.81084C0.805004 5.95055 2.49817 4.4244 4.53798 3.9386C5.20671 3.76442 5.90648 3.73361 6.5985 3.74309C10.0792 3.74546 13.56 3.74427 17.0407 3.74427C17.2865 3.14827 17.6008 2.57004 18.0445 2.07594C19.0806 0.875638 20.6741 0.123229 22.335 0ZM22.2819 3.59971C21.3558 3.77745 20.6185 4.57725 20.612 5.44815C20.5564 6.27284 21.1553 7.07976 21.9974 7.36176C22.4074 7.50395 22.8536 7.48025 23.2844 7.48143C25.0526 7.48025 26.8207 7.48025 28.5889 7.48143C28.9343 7.47906 29.2835 7.49684 29.6276 7.45063C30.2265 7.3665 30.7633 7.0134 31.0789 6.54418C31.498 5.92922 31.4993 5.09505 31.0724 4.48246C30.6921 3.90779 29.9691 3.54521 29.237 3.55469C27.2528 3.5535 25.2686 3.55587 23.2844 3.5535C22.9494 3.55587 22.6105 3.53692 22.2819 3.59971ZM5.29726 7.44352C4.45908 7.73856 3.86667 8.53362 3.88219 9.35831C3.8809 24.4077 3.88348 39.4559 3.88219 54.5052C3.88219 54.9353 3.84339 55.3844 4.03223 55.792C4.3569 56.5966 5.27656 57.1487 6.21174 57.1132C19.1892 57.1108 32.1667 57.1132 45.1442 57.112C45.6887 57.1084 46.263 57.1618 46.7701 56.9366C47.6018 56.6179 48.1567 55.8027 48.1205 54.9792C48.1179 40.0495 48.1205 25.1198 48.1192 10.1901C48.114 9.8299 48.136 9.46969 48.1023 9.11185C48.0118 8.34641 47.4077 7.65798 46.6123 7.41153C46.1841 7.26341 45.7211 7.30252 45.2735 7.29896C41.8341 7.29896 38.3961 7.29896 34.9567 7.29896C34.5441 8.36655 33.7861 9.32395 32.7811 9.98868C31.7618 10.6724 30.4968 11.0456 29.2331 11.029C27.0781 11.029 24.9219 11.029 22.767 11.029C20.2395 11.0894 17.8401 9.48272 17.0433 7.29896C13.6053 7.29896 10.1659 7.29896 6.72784 7.29896C6.24796 7.30015 5.74739 7.26223 5.29726 7.44352Z" fill="white"/>
<path d="M15.3749 18.4642C15.7448 18.1123 16.2829 17.9121 16.8158 17.9298C17.6346 17.931 18.4094 18.4773 18.6215 19.2012C18.8285 19.8198 18.6202 20.5236 18.1183 20.975C16.6063 22.3578 15.102 23.7489 13.5834 25.1245C12.6327 25.9634 10.9965 26.0168 10.0056 25.2098C9.26319 24.5842 8.56989 23.9112 7.85459 23.2607C7.22079 22.6919 7.10308 21.7215 7.5946 21.0426C8.15468 20.1954 9.53741 19.9691 10.3859 20.5828C10.8645 20.9584 11.2875 21.3886 11.7363 21.7926C12.9522 20.6859 14.1616 19.5733 15.3749 18.4642Z" fill="white"/>
<path d="M23.3271 20.4372C29.6224 20.436 35.9178 20.4324 42.2132 20.4383C43.2531 20.4466 44.1508 21.3329 44.0874 22.282C44.068 23.1968 43.1665 23.9978 42.1679 23.9883C35.8738 23.9907 29.5798 23.993 23.2857 23.9871C22.2483 23.9847 21.3377 23.1055 21.3946 22.1564C21.4063 21.2322 22.3195 20.4229 23.3271 20.4372Z" fill="white"/>
<path d="M16.0473 30.5811C16.9256 30.2244 18.0626 30.6072 18.4778 31.4011C18.8878 32.0824 18.7067 32.9888 18.0949 33.5196C16.5841 34.8989 15.0863 36.2899 13.5664 37.6609C12.5976 38.5057 10.9381 38.5258 9.95245 37.694C9.2488 37.072 8.56714 36.4297 7.87254 35.7982C7.3655 35.3479 7.15725 34.6334 7.37326 34.0149C7.55822 33.4059 8.1377 32.9189 8.81161 32.7921C9.42342 32.6689 10.0909 32.8348 10.5462 33.2282C10.9484 33.5836 11.3416 33.9486 11.7336 34.3135C12.8343 33.3111 13.9299 32.3039 15.0268 31.2991C15.3282 31.0195 15.6282 30.7114 16.0473 30.5811Z" fill="white"/>
<path d="M22.9492 32.9934C23.3153 32.9341 23.6904 32.9602 24.0603 32.9555C30.0543 32.9566 36.0483 32.9555 42.0423 32.9555C42.8688 32.9211 43.7031 33.3998 43.967 34.1285C44.3395 34.9686 43.8376 36.0208 42.9231 36.3573C42.5286 36.5421 42.0785 36.5018 41.6516 36.5042C35.5283 36.5018 29.4063 36.5066 23.2829 36.5018C22.2598 36.5137 21.3608 35.6475 21.3945 34.7162C21.3919 33.901 22.0774 33.1486 22.9492 32.9934Z" fill="white"/>
<path d="M16.0641 42.4574C16.8531 42.1588 17.8388 42.4207 18.3303 43.0617C18.8748 43.724 18.805 44.7265 18.1764 45.3237C16.672 46.7124 15.16 48.0916 13.6492 49.4743C12.9494 50.1225 11.8461 50.3654 10.9018 50.0763C10.4181 49.9447 10.0106 49.6545 9.66268 49.3286C9.0444 48.7516 8.40801 48.1911 7.7949 47.6081C7.14299 46.9766 7.12359 45.909 7.74963 45.2561C8.39896 44.5369 9.68467 44.4279 10.4569 45.0417C10.9005 45.4113 11.3106 45.813 11.7361 46.2005C12.8227 45.2123 13.9014 44.2181 14.9841 43.2288C15.3087 42.9349 15.6153 42.5937 16.0641 42.4574Z" fill="white"/>
<path d="M23.3258 44.8449C29.6043 44.8437 35.8829 44.8449 42.1601 44.8449C43.169 44.8295 44.0732 45.6387 44.0874 46.5606C44.1482 47.5215 43.2182 48.4078 42.1679 48.396C35.9178 48.4031 29.6664 48.3984 23.415 48.3984C22.8549 48.4114 22.291 48.2005 21.912 47.8213C21.4502 47.3687 21.2652 46.6838 21.4851 46.0937C21.7193 45.371 22.5018 44.8377 23.3258 44.8449Z" fill="white"/>
</svg>
