<svg width="85" height="84" viewBox="0 0 85 84" fill="none" xmlns="http://www.w3.org/2000/svg">
<path d="M11.9458 0H52.939C54.4738 0.114388 55.9837 0.656914 57.1786 1.61614C58.5818 2.71427 59.5684 4.31897 59.8767 6.0544C60.03 6.86001 59.9984 7.68197 60 8.4974C60 20.4264 60 32.3555 60 44.2845C61.4666 44.3237 62.9631 44.1538 64.3997 44.5247C66.7061 45.1032 68.661 46.837 69.5026 49.0185C69.8525 49.9026 70.0025 50.8537 69.9992 51.7998C70.0009 54.1987 69.9975 56.5959 69.9992 58.9948C69.9975 60.3168 70.5725 61.629 71.5557 62.5343C72.789 63.706 74.6671 64.188 76.3203 63.7141C77.9919 63.2778 79.3684 61.9248 79.815 60.2874C80.0417 59.5504 79.9967 58.7726 79.9984 58.0127C79.9984 51.8014 79.9984 45.5918 79.9984 39.3822C77.4936 39.3789 74.9904 39.3871 72.4857 39.3789C71.5007 39.3854 70.5592 38.7563 70.1925 37.8624C69.9225 37.2611 70.0092 36.5878 69.9992 35.9505C69.9992 29.633 69.9992 23.3139 69.9992 16.9964C68.9343 16.2987 67.8677 15.6025 66.8028 14.9064C66.2778 14.5665 65.6962 14.2478 65.3713 13.6972C64.7496 12.7396 64.9346 11.3571 65.8179 10.6119C66.6328 9.85208 67.9777 9.76547 68.8993 10.3897C72.7973 12.9357 76.697 15.4783 80.59 18.0308C82.8348 19.5015 84.4163 21.9037 84.853 24.5166C85.0179 25.3778 85.0013 26.2553 84.9979 27.1263C84.9979 37.7481 84.9979 48.3714 84.9979 58.9932C85.0063 61.8333 83.6714 64.6391 81.4549 66.466C79.2518 68.3125 76.2003 69.1541 73.3423 68.6573C71.0358 68.2733 68.881 67.0723 67.3761 65.3156C65.8546 63.572 64.993 61.2858 64.9996 58.9916C65.0013 56.8133 64.998 54.6334 65.0013 52.4551C64.998 51.8717 65.0513 51.2606 64.8096 50.7115C64.4413 49.8144 63.4964 49.1803 62.5082 49.1885C61.6716 49.1771 60.835 49.1918 60 49.1869C60 55.7233 60 62.2598 60 68.7962C60.8366 68.8028 61.6749 68.7864 62.5115 68.7979C63.4981 68.793 64.443 69.4221 64.8096 70.3192C65.0529 70.8683 64.998 71.4795 65.0013 72.0645C64.998 74.7869 64.9996 77.511 64.9996 80.235C64.993 80.9099 65.0763 81.6289 64.758 82.2548C64.4013 83.0228 63.6197 83.5376 62.7781 83.6667H2.27491C1.03501 83.5507 -0.0098973 82.4542 0.00676797 81.227C0.000101863 78.1728 0.010101 75.1186 0.00343492 72.0645C0.00676797 71.4795 -0.0498939 70.8667 0.195085 70.3176C0.561721 69.4237 1.50664 68.7913 2.49156 68.7979C3.32982 68.7848 4.16642 68.8028 5.00468 68.7962C5.00468 48.7506 5.00468 28.7049 5.00468 8.66081C5.00968 7.7359 4.95968 6.79955 5.15967 5.88935C5.60296 3.66205 7.1845 1.70275 9.26765 0.727181C10.1043 0.321921 11.0258 0.120925 11.9458 0ZM11.8024 5.00529C11.0025 5.23244 10.3359 5.87955 10.1093 6.66719C9.9526 7.15416 10.0126 7.67054 10.0043 8.17058C10.0043 16.8853 10.0043 25.6017 10.0043 34.3164C25.003 34.3164 40.0017 34.3164 55.0005 34.3164C55.0005 25.6017 55.0005 16.8853 55.0005 8.17058C54.9921 7.6689 55.0505 7.15252 54.8938 6.66719C54.6772 5.92203 54.0705 5.29453 53.3239 5.04451C52.7957 4.84352 52.219 4.91215 51.6674 4.90234C38.8918 4.90234 26.1146 4.90234 13.339 4.90234C12.8274 4.91378 12.2991 4.85005 11.8024 5.00529ZM74.9988 20.2647C74.9988 25.0036 74.9988 29.7409 74.9988 34.4798C76.6653 34.4798 78.3318 34.4798 79.9984 34.4798C79.9967 31.7002 80.0017 28.9222 79.995 26.1426C79.995 24.5902 79.1951 23.0672 77.9019 22.1717C76.9436 21.5213 75.9637 20.9036 74.9988 20.2647ZM10.0043 39.2188C10.0043 49.0774 10.0043 58.9376 10.0043 68.7962C25.003 68.7962 40.0017 68.7962 55.0005 68.7962C55.0005 58.9376 55.0005 49.0774 55.0005 39.2188C40.0017 39.2188 25.003 39.2188 10.0043 39.2188ZM5.00468 73.6986C5.00468 75.3866 5.00468 77.0763 5.00468 78.7643C23.3365 78.7643 41.6683 78.7643 60 78.7643C60 77.0763 60 75.3866 60 73.6986C41.6683 73.6986 23.3365 73.6986 5.00468 73.6986Z" fill="#23228A"/>
<path d="M16.8987 10.0434C17.3686 9.92407 17.8569 9.97636 18.3369 9.96819C28.0611 9.96819 37.7852 9.96819 47.5094 9.96819C48.5393 9.96329 49.5292 10.6512 49.8542 11.6121C50.0559 12.1301 49.9959 12.6939 50.0009 13.2364C50.0009 17.593 50.0009 21.9512 50.0009 26.3077C49.9925 26.8094 50.0509 27.3258 49.8942 27.8127C49.6692 28.6004 49.0026 29.2491 48.201 29.4746C47.7044 29.6266 47.1794 29.5694 46.6678 29.5776C36.9436 29.5776 27.2195 29.5792 17.4969 29.5776C16.4654 29.5825 15.4804 28.8929 15.1505 27.9353C14.9472 27.4173 15.0105 26.8519 15.0038 26.3093C15.0038 21.8972 15.0055 17.4851 15.0022 13.073C15.0072 12.6253 14.9655 12.1661 15.1071 11.733C15.3438 10.9127 16.0554 10.246 16.8987 10.0434ZM20.0034 14.8705C20.0034 18.1388 20.0034 21.407 20.0034 24.6752C28.336 24.6752 36.6687 24.6752 45.0013 24.6752C45.0013 21.407 45.0013 18.1388 45.0013 14.8705C36.6687 14.8705 28.336 14.8705 20.0034 14.8705Z" fill="#23228A"/>
<path d="M31.8909 44.3546C32.6859 44.152 33.5791 44.3694 34.1824 44.9184C34.7024 45.3711 34.9007 46.0541 35.3006 46.5966C36.8972 48.9449 38.782 51.1901 39.6486 53.9289C40.3052 55.8866 40.2669 58.1041 39.3236 59.967C38.6304 61.3805 37.4388 62.5505 35.9989 63.2319C33.5441 64.4052 30.4594 64.2484 28.1762 62.7646C26.8164 61.8854 25.7848 60.5406 25.2881 59.0208C24.7232 57.3312 24.8165 55.4699 25.3915 53.7949C26.1047 51.6068 27.4613 49.7031 28.7962 47.8451C29.3178 47.0983 29.8744 46.3711 30.3061 45.5688C30.6277 44.9674 31.2176 44.5148 31.8909 44.3546ZM30.0594 55.5892C29.7978 56.4651 29.8228 57.5076 30.446 58.2381C31.461 59.3983 33.5425 59.3967 34.559 58.2381C35.1973 57.4815 35.2106 56.3981 34.914 55.5009C34.4124 53.9306 33.4308 52.5693 32.4825 51.2326C31.5276 52.5955 30.5294 53.9812 30.0594 55.5892Z" fill="#23228A"/>
</svg>
