<svg width="88" height="87" viewBox="0 0 88 87" fill="none" xmlns="http://www.w3.org/2000/svg">
<g clip-path="url(#clip0_112_58)">
<path d="M86.523 39.6039L73.1862 26.4187V11.1875C73.1862 8.43344 70.9288 6.20153 68.139 6.20153C65.3557 6.20153 63.0983 8.43344 63.0983 11.1875V16.4456L53.168 6.62775C48.2583 1.77652 39.722 1.78513 34.8236 6.63653L1.47653 39.6039C-0.492016 41.554 -0.492016 44.7093 1.47653 46.6563C3.44597 48.6059 6.64376 48.6059 8.61249 46.6563L41.9563 13.6881C43.0426 12.6198 44.9571 12.6198 46.0377 13.6849L79.3872 46.6563C80.3761 47.6312 81.6654 48.1161 82.9543 48.1161C84.2459 48.1161 85.5373 47.6307 86.5232 46.6563C88.4924 44.7095 88.4924 41.5542 86.523 39.6039Z" fill="#23228A"/>
<path d="M45.7518 23.1525C44.783 22.1952 43.2143 22.1952 42.2483 23.1525L12.9162 52.1428C12.4531 52.6004 12.1906 53.2253 12.1906 53.8773V75.0217C12.1906 79.9834 16.2598 84.0062 21.2784 84.0062H35.8007V61.7715H52.1962V84.0062H66.7188C71.7372 84.0062 75.8064 79.9834 75.8064 75.0219V53.8773C75.8064 53.2253 75.5462 52.6004 75.0808 52.1428L45.7518 23.1525Z" fill="#23228A"/>
</g>
<defs>
<clipPath id="clip0_112_58">
<rect width="88" height="87" fill="white"/>
</clipPath>
</defs>
</svg>
