<svg width="47" height="54" viewBox="0 0 47 54" fill="none" xmlns="http://www.w3.org/2000/svg">
<path d="M21.9074 0.0475807C14.3453 0.516518 7.53634 4.17332 3.53286 9.9223C2.36013 11.6042 1.44014 13.4709 0.858828 15.3511C-0.682913 20.3426 -0.136985 25.6226 2.40057 30.2083C3.36605 31.9533 4.28099 33.1842 5.81767 34.8075C5.98954 34.9924 9.62401 39.2083 13.8853 44.1727C18.5257 49.579 21.7456 53.2899 21.9124 53.4252C22.8526 54.1917 24.1467 54.1917 25.0869 53.4252C25.2537 53.2899 28.4737 49.579 33.1141 44.1727C37.3753 39.2083 41.0098 34.9924 41.1817 34.8075C42.7184 33.1842 43.6333 31.9533 44.5988 30.2083C47.4598 25.0365 47.7783 18.9268 45.4783 13.5475C43.694 9.38573 40.5903 5.93183 36.3896 3.43835C32.2194 0.96291 26.9673 -0.263538 21.9074 0.0475807ZM24.7331 10.2109C25.8654 10.3416 26.7449 10.5761 27.7711 11.0225C30.5664 12.2309 32.4772 14.4313 33.1393 17.2179C33.2657 17.7409 33.2758 17.8717 33.2809 18.8682C33.2809 20.0721 33.2303 20.4238 32.927 21.3707C32.1132 23.9002 29.9649 26.024 27.215 27.0204C26.199 27.3902 25.37 27.5615 24.2225 27.6472C22.7364 27.7599 21.225 27.5435 19.7843 27.0204C17.0345 26.024 14.8861 23.9002 14.0723 21.3707C13.769 20.4238 13.7185 20.0721 13.7185 18.8682C13.7235 17.8717 13.7336 17.7409 13.86 17.2179C14.4262 14.8416 15.9123 12.8667 18.1162 11.5726C19.0109 11.0495 20.3252 10.549 21.3362 10.3507C22.3927 10.1432 23.6968 10.0891 24.7331 10.2109Z" fill="white"/>
</svg>
