<svg width="64" height="87" viewBox="0 0 64 87" fill="none" xmlns="http://www.w3.org/2000/svg">
<path d="M29.8323 0.0748215C19.5372 0.7817 10.2675 6.29397 4.81721 14.96C3.22065 17.4952 1.96817 20.3091 1.17678 23.1434C-0.922148 30.6676 -0.178923 38.6267 3.2757 45.5391C4.59011 48.1695 5.8357 50.0251 7.92774 52.4719C8.16172 52.7506 13.1097 59.1057 18.911 66.589C25.2284 74.7385 29.612 80.3323 29.8391 80.5362C31.1191 81.6917 32.8809 81.6917 34.1609 80.5362C34.388 80.3323 38.7716 74.7385 45.089 66.589C50.8903 59.1057 55.8383 52.7506 56.0723 52.4719C58.1643 50.0251 59.4099 48.1695 60.7243 45.5391C64.6194 37.7431 65.0529 28.5333 61.9217 20.4247C59.4925 14.1512 55.2671 8.94475 49.5484 5.18607C43.871 1.45459 36.7209 -0.394157 29.8323 0.0748215ZM33.6791 15.395C35.2206 15.5921 36.4181 15.9455 37.8151 16.6184C41.6207 18.44 44.2219 21.7569 45.1234 25.9573C45.2955 26.7458 45.3093 26.9429 45.3161 28.445C45.3161 30.2597 45.2473 30.7899 44.8344 32.2172C43.7265 36.0303 40.8017 39.2316 37.0581 40.7337C35.6748 41.2911 34.5462 41.5494 32.9841 41.6785C30.9609 41.8484 28.9032 41.5222 26.9419 40.7337C23.1983 39.2316 20.2736 36.0303 19.1656 32.2172C18.7527 30.7899 18.6839 30.2597 18.6839 28.445C18.6908 26.9429 18.7045 26.7458 18.8766 25.9573C19.6473 22.3754 21.6705 19.3983 24.671 17.4476C25.889 16.6592 27.6783 15.9047 29.0546 15.6057C30.4929 15.293 32.2684 15.2115 33.6791 15.395Z" fill="#23228A"/>
</svg>
