<svg width="72" height="66" viewBox="0 0 72 66" fill="none" xmlns="http://www.w3.org/2000/svg">
<path d="M18.0042 2.05733C17.9873 1.51077 18.5245 1.01964 19.1208 1.03511C23.6236 1.02866 28.1278 1.02866 32.6306 1.03511C33.2269 1.02093 33.7598 1.51077 33.7458 2.05733C33.757 3.77823 33.7458 5.49784 33.75 7.21874C35.2519 7.22261 36.7523 7.21229 38.2542 7.22261C38.7942 7.21101 39.2977 7.61319 39.3581 8.10562C39.3933 8.45366 39.3708 8.803 39.375 9.15233C39.375 17.4449 39.375 25.7374 39.375 34.0312C40.8755 34.0312 42.3745 34.0312 43.875 34.0312C43.8778 30.9362 43.8694 27.8412 43.8792 24.7461C43.8623 24.1983 44.3981 23.7071 44.9958 23.7226C49.4494 23.7136 53.9044 23.7226 58.3594 23.7175C58.898 23.6698 59.4506 23.9907 59.5828 24.4806C59.6559 24.8235 59.618 25.1767 59.625 25.5234C59.625 37.9848 59.625 50.4449 59.625 62.9062C61.4995 62.9062 63.3755 62.9062 65.25 62.9062C65.25 60.7973 65.2514 58.6884 65.2486 56.5795C63.7102 56.207 62.4164 55.0623 62.0297 53.6392C61.7063 52.6569 61.9805 51.6334 62.1619 50.6524C62.5233 49.0346 63.0197 47.4104 63.9408 45.9783C64.3936 45.3028 65.0011 44.6299 65.8659 44.4056C66.5367 44.2239 67.2638 44.4443 67.7841 44.8465C68.5477 45.4317 69.0216 46.2593 69.4209 47.0791C69.9961 48.3102 70.3758 49.6121 70.6416 50.9283C70.7949 51.7675 70.9988 52.6363 70.7611 53.4806C70.4222 54.9695 69.1017 56.1992 67.5014 56.5782C67.4986 58.6871 67.5 60.7973 67.5 62.9062C68.625 62.9062 69.75 62.9062 70.875 62.9062C70.875 63.5933 70.875 64.2804 70.875 64.9687C47.6255 64.9687 24.3745 64.9687 1.125 64.9687C1.125 64.2804 1.125 63.5933 1.125 62.9062C2.25 62.9062 3.375 62.9062 4.5 62.9062C4.5 60.7973 4.50141 58.6884 4.49859 56.5795C2.89969 56.1941 1.57359 54.9708 1.2375 53.4793C0.997031 52.635 1.20656 51.7662 1.35703 50.927C1.62 49.6109 2.0025 48.3089 2.57766 47.0778C2.97703 46.258 3.45234 45.433 4.21453 44.8465C4.71656 44.4598 5.40703 44.238 6.05813 44.3889C6.85969 44.5642 7.45734 45.1455 7.90031 45.7514C8.57953 46.7066 9.01828 47.7881 9.36703 48.8787C9.70875 49.9628 9.95625 51.0739 10.0983 52.1967C10.2727 53.6546 9.495 55.1564 8.17453 55.9775C7.74563 56.2585 7.25063 56.4339 6.75141 56.5782C6.74859 58.6871 6.75 60.7973 6.75 62.9062C8.62453 62.9062 10.5005 62.9062 12.375 62.9062C12.375 44.9883 12.375 27.069 12.375 9.15104C12.3778 8.803 12.3567 8.45237 12.3919 8.10433C12.4495 7.6119 12.9558 7.21101 13.4958 7.22261C14.9963 7.21229 16.4981 7.22261 18 7.21874C18.0042 5.49784 17.993 3.77823 18.0042 2.05733ZM20.25 3.09374C20.25 4.46917 20.25 5.84331 20.25 7.21874C24.0005 7.21874 27.7495 7.21874 31.5 7.21874C31.5 5.84331 31.5 4.46917 31.5 3.09374C27.7495 3.09374 24.0005 3.09374 20.25 3.09374ZM14.625 9.28124C14.625 9.96831 14.625 10.6567 14.625 11.3437C17.2505 11.3437 19.8745 11.3437 22.5 11.3437C22.5 12.0308 22.5 12.7192 22.5 13.4062C19.8745 13.4062 17.2505 13.4062 14.625 13.4062C14.625 29.9062 14.625 46.4062 14.625 62.9062C16.875 62.9062 19.125 62.9062 21.375 62.9062C21.375 53.9253 21.375 44.9457 21.375 35.9648C21.3778 35.6155 21.3567 35.2649 21.3919 34.9168C21.4495 34.4244 21.9558 34.0235 22.4958 34.0351C27.3713 34.0261 32.2481 34.0338 37.125 34.0312C37.125 29.9062 37.125 25.7812 37.125 21.6562C34.4995 21.6562 31.8755 21.6562 29.25 21.6562C29.25 20.9692 29.25 20.2808 29.25 19.5937C31.8755 19.5937 34.4995 19.5937 37.125 19.5937C37.125 16.1558 37.125 12.7192 37.125 9.28124C29.6255 9.28124 22.1245 9.28124 14.625 9.28124ZM46.125 25.7812C46.125 28.5308 46.125 31.2817 46.125 34.0312C47.2514 34.0351 48.3778 34.0235 49.5042 34.0351C50.0442 34.0235 50.5477 34.4257 50.6081 34.9181C50.6433 35.2662 50.6208 35.6155 50.625 35.9661C50.625 44.9457 50.625 53.9253 50.625 62.9062C52.875 62.9062 55.125 62.9062 57.375 62.9062C57.375 50.5312 57.375 38.1562 57.375 25.7812C53.6245 25.7812 49.8755 25.7812 46.125 25.7812ZM23.625 36.0937C23.625 45.0308 23.625 53.9692 23.625 62.9062C25.4995 62.9062 27.3755 62.9062 29.25 62.9062C29.2528 59.8112 29.2444 56.7162 29.2542 53.6211C29.2359 53.0733 29.7745 52.5821 30.3708 52.5976C34.1241 52.5912 37.8773 52.5912 41.6306 52.5976C42.2269 52.5834 42.7598 53.0746 42.7458 53.6211C42.7556 56.7162 42.7472 59.8112 42.75 62.9062C44.6245 62.9062 46.5005 62.9062 48.375 62.9062C48.375 53.9692 48.375 45.0308 48.375 36.0937C40.1245 36.0937 31.8755 36.0937 23.625 36.0937ZM5.54203 46.4552C5.08219 46.8987 4.83609 47.4813 4.57453 48.0343C4.04578 49.2641 3.64922 50.5454 3.43688 51.8538C3.37219 52.3089 3.31734 52.7897 3.4875 53.2318C3.78563 54.1032 4.77563 54.7233 5.76984 54.6524C6.66563 54.6073 7.48969 54.0156 7.76109 53.2331C7.93266 52.7897 7.87641 52.3101 7.81313 51.8551C7.60219 50.5441 7.20703 49.2615 6.67969 48.0305C6.41672 47.4775 6.17063 46.8935 5.70656 46.4526C5.66578 46.4526 5.58281 46.4539 5.54203 46.4552ZM66.292 46.4578C65.8294 46.8987 65.5861 47.4826 65.3245 48.0356C64.7958 49.2654 64.3992 50.5467 64.1869 51.8551C64.1222 52.3089 64.0674 52.7897 64.2361 53.2318C64.5342 54.1032 65.5256 54.7246 66.5213 54.6524C67.417 54.606 68.2397 54.0156 68.5111 53.2331C68.6813 52.791 68.6264 52.3101 68.5631 51.8551C68.3522 50.5454 67.957 49.2628 67.4297 48.0305C67.1653 47.4787 66.9234 46.8948 66.458 46.4552C66.4172 46.4552 66.3328 46.4565 66.292 46.4578ZM31.5 54.6562C31.5 57.4058 31.5 60.1567 31.5 62.9062C34.4995 62.9062 37.5005 62.9062 40.5 62.9062C40.5 60.1567 40.5 57.4058 40.5 54.6562C37.5005 54.6562 34.4995 54.6562 31.5 54.6562Z" fill="white"/>
<path d="M22.5 15.4688C25.4995 15.4688 28.5005 15.4688 31.5 15.4688C31.5 16.1558 31.5 16.8442 31.5 17.5312C28.5005 17.5312 25.4995 17.5312 22.5 17.5312C22.5 16.8442 22.5 16.1558 22.5 15.4688Z" fill="white"/>
<path d="M24.75 23.7188C27.7495 23.7188 30.7505 23.7188 33.75 23.7188C33.75 24.4058 33.75 25.0942 33.75 25.7812C30.7505 25.7812 27.7495 25.7812 24.75 25.7812C24.75 25.0942 24.75 24.4058 24.75 23.7188Z" fill="white"/>
<path d="M19.125 27.8438C22.1245 27.8438 25.1255 27.8438 28.125 27.8438C28.125 28.5308 28.125 29.2192 28.125 29.9062C25.1255 29.9062 22.1245 29.9062 19.125 29.9062C19.125 29.2192 19.125 28.5308 19.125 27.8438Z" fill="white"/>
<path d="M48.375 27.8438C49.1245 27.8438 49.8741 27.8438 50.625 27.8438C50.625 28.5308 50.625 29.2192 50.625 29.9062C49.8741 29.9062 49.1245 29.9062 48.375 29.9062C48.375 29.2192 48.375 28.5308 48.375 27.8438Z" fill="white"/>
<path d="M52.875 27.8438C53.6245 27.8438 54.3755 27.8438 55.125 27.8438C55.125 28.5308 55.125 29.2192 55.125 29.9062C54.3741 29.9062 53.6245 29.9062 52.875 29.9062C52.875 29.2192 52.875 28.5308 52.875 27.8438Z" fill="white"/>
<path d="M52.875 31.9688C53.6245 31.9688 54.3741 31.9688 55.125 31.9688C55.125 32.6558 55.125 33.3442 55.125 34.0312C54.3741 34.0312 53.6245 34.0312 52.875 34.0312C52.875 33.3442 52.875 32.6558 52.875 31.9688Z" fill="white"/>
<path d="M16.875 34.0312C17.6245 34.0312 18.3755 34.0312 19.125 34.0312C19.125 34.7183 19.125 35.4067 19.125 36.0938C18.3755 36.0938 17.6245 36.0938 16.875 36.0938C16.875 35.4054 16.875 34.7183 16.875 34.0312Z" fill="white"/>
<path d="M52.875 36.0938C53.6245 36.0938 54.3741 36.0938 55.125 36.0938C55.125 36.7808 55.125 37.4692 55.125 38.1562C54.3741 38.1562 53.6245 38.1562 52.875 38.1562C52.875 37.4692 52.875 36.7808 52.875 36.0938Z" fill="white"/>
<path d="M16.875 38.1562C17.6245 38.1562 18.3755 38.1562 19.125 38.1562C19.125 38.8433 19.125 39.5317 19.125 40.2188C18.3755 40.2188 17.6245 40.2188 16.875 40.2188C16.875 39.5317 16.875 38.8433 16.875 38.1562Z" fill="white"/>
<path d="M26.63 38.2143C26.8846 38.1382 27.1574 38.1576 27.4204 38.1537C28.7816 38.1627 30.1443 38.1472 31.5041 38.1601C31.9414 38.155 32.3605 38.4089 32.5293 38.7776C32.6516 39.0264 32.6193 39.3087 32.6277 39.5755C32.6164 40.822 32.6347 42.0699 32.6207 43.3177C32.6249 43.716 32.3479 44.1001 31.9471 44.2548C31.6757 44.3683 31.3677 44.3386 31.078 44.3463C29.7168 44.336 28.3555 44.3528 26.9943 44.3399C26.3994 44.3528 25.8608 43.8629 25.8791 43.3151C25.8721 41.9384 25.8707 40.5604 25.8791 39.1836C25.8693 38.7557 26.1899 38.3509 26.63 38.2143ZM28.1249 40.2188C28.1249 40.9058 28.1249 41.5942 28.1249 42.2813C28.8744 42.2813 29.6254 42.2813 30.3749 42.2813C30.3749 41.5942 30.3749 40.9058 30.3749 40.2188C29.6254 40.2188 28.8744 40.2188 28.1249 40.2188Z" fill="white"/>
<path d="M40.13 38.2143C40.3846 38.1382 40.6574 38.1576 40.9218 38.1537C42.2816 38.1627 43.6429 38.1472 45.0041 38.1601C45.44 38.1537 45.8605 38.4089 46.0279 38.7776C46.1502 39.0264 46.1193 39.3074 46.1277 39.5729C46.1164 40.8208 46.1347 42.0699 46.1207 43.3164C46.1249 43.716 45.8479 44.1001 45.4471 44.2548C45.1757 44.367 44.8677 44.3386 44.5794 44.3463C43.2168 44.336 41.8555 44.3528 40.4943 44.3399C39.898 44.3515 39.3608 43.8629 39.3791 43.3164C39.3721 41.9384 39.3707 40.5604 39.3791 39.1836C39.3693 38.7557 39.6899 38.3509 40.13 38.2143ZM41.6249 40.2188C41.6249 40.9058 41.6249 41.5929 41.6249 42.2813C42.3744 42.2813 43.1254 42.2813 43.8749 42.2813C43.8749 41.5929 43.8749 40.9058 43.8749 40.2188C43.1239 40.2188 42.3744 40.2188 41.6249 40.2188Z" fill="white"/>
<path d="M34.875 40.2188C35.6245 40.2188 36.3741 40.2188 37.125 40.2188C37.125 40.9058 37.125 41.5929 37.125 42.2812C36.3755 42.2812 35.6245 42.2812 34.875 42.2812C34.875 41.5942 34.875 40.9058 34.875 40.2188Z" fill="white"/>
<path d="M52.875 40.2188C53.6245 40.2188 54.3741 40.2188 55.125 40.2188C55.125 40.9058 55.125 41.5929 55.125 42.2812C54.3741 42.2812 53.6245 42.2812 52.875 42.2812C52.875 41.5929 52.875 40.9058 52.875 40.2188Z" fill="white"/>
<path d="M16.875 42.2812C17.6245 42.2812 18.3755 42.2812 19.125 42.2812C19.125 42.9683 19.125 43.6554 19.125 44.3438C18.3755 44.3438 17.6245 44.3438 16.875 44.3438C16.875 43.6567 16.875 42.9683 16.875 42.2812Z" fill="white"/>
<path d="M34.875 44.3438C35.6245 44.3438 36.3755 44.3438 37.125 44.3438C37.125 45.0308 37.125 45.7179 37.125 46.4062C36.3755 46.4062 35.6245 46.4062 34.875 46.4062C34.875 45.7179 34.875 45.0308 34.875 44.3438Z" fill="white"/>
<path d="M52.875 44.3438C53.6245 44.3438 54.3741 44.3438 55.125 44.3438C55.125 45.0308 55.125 45.7179 55.125 46.4062C54.3741 46.4062 53.6245 46.4062 52.875 46.4062C52.875 45.7179 52.875 45.0308 52.875 44.3438Z" fill="white"/>
<path d="M16.875 46.4062C17.6245 46.4062 18.3755 46.4062 19.125 46.4062C19.125 47.0933 19.125 47.7804 19.125 48.4688C18.3755 48.4688 17.6245 48.4688 16.875 48.4688C16.875 47.7804 16.875 47.0933 16.875 46.4062Z" fill="white"/>
<path d="M28.125 46.4062C28.8745 46.4062 29.6255 46.4062 30.375 46.4062C30.375 47.0933 30.375 47.7804 30.375 48.4688C29.6255 48.4688 28.8745 48.4688 28.125 48.4688C28.125 47.7817 28.125 47.0933 28.125 46.4062Z" fill="white"/>
<path d="M41.625 46.4062C42.3745 46.4062 43.1255 46.4062 43.875 46.4062C43.875 47.0933 43.875 47.7817 43.875 48.4688C43.1241 48.4688 42.3745 48.4688 41.625 48.4688C41.625 47.7804 41.625 47.0933 41.625 46.4062Z" fill="white"/>
<path d="M34.875 48.4688C35.6245 48.4688 36.3755 48.4688 37.125 48.4688C37.125 49.1558 37.125 49.8429 37.125 50.5312C36.3755 50.5312 35.6245 50.5312 34.875 50.5312C34.875 49.8429 34.875 49.1558 34.875 48.4688Z" fill="white"/>
<path d="M52.875 48.4688C53.6245 48.4688 54.3741 48.4688 55.125 48.4688C55.125 49.1558 55.125 49.8429 55.125 50.5312C54.3741 50.5312 53.6245 50.5312 52.875 50.5312C52.875 49.8429 52.875 49.1558 52.875 48.4688Z" fill="white"/>
<path d="M16.875 50.5312C17.6245 50.5312 18.3755 50.5312 19.125 50.5312C19.125 51.2183 19.125 51.9054 19.125 52.5938C18.3755 52.5938 17.6245 52.5938 16.875 52.5938C16.875 51.9054 16.875 51.2183 16.875 50.5312Z" fill="white"/>
<path d="M52.875 52.5938C53.6245 52.5938 54.3741 52.5938 55.125 52.5938C55.125 53.2808 55.125 53.9679 55.125 54.6562C54.3741 54.6562 53.6245 54.6562 52.875 54.6562C52.875 53.9679 52.875 53.2808 52.875 52.5938Z" fill="white"/>
<path d="M16.875 54.6562C17.6245 54.6562 18.3755 54.6562 19.125 54.6562C19.125 55.3433 19.125 56.0304 19.125 56.7188C18.3755 56.7188 17.6245 56.7188 16.875 56.7188C16.875 56.0304 16.875 55.3433 16.875 54.6562Z" fill="white"/>
<path d="M52.875 56.7188C53.6245 56.7188 54.3741 56.7188 55.125 56.7188C55.125 57.4058 55.125 58.0929 55.125 58.7812C54.3741 58.7812 53.6245 58.7812 52.875 58.7812C52.875 58.0929 52.875 57.4058 52.875 56.7188Z" fill="white"/>
<path d="M16.875 58.7812C17.6245 58.7812 18.3755 58.7812 19.125 58.7812C19.125 59.4683 19.125 60.1554 19.125 60.8438C18.3755 60.8438 17.6245 60.8438 16.875 60.8438C16.875 60.1554 16.875 59.4683 16.875 58.7812Z" fill="white"/>
</svg>
