<svg width="58" height="61" viewBox="0 0 58 61" fill="none" xmlns="http://www.w3.org/2000/svg">
<path d="M42.0243 5.11656C43.0079 5.31225 43.6546 6.30947 43.4685 7.3439L41.135 20.3182L51.3531 20.3132C52.3543 20.3127 53.1661 21.1657 53.1666 22.2185C53.1666 23.2713 52.356 24.1252 51.3548 24.1257L40.4491 24.131L38.1637 36.8386L48.9364 36.8333C49.9377 36.8328 50.7494 37.686 50.7499 38.7388C50.7504 39.7916 49.9394 40.6453 48.9381 40.6458L37.4778 40.6514L35.0099 54.3723C34.8241 55.4068 33.8758 56.0867 32.8922 55.891C31.9086 55.6953 31.2622 54.6982 31.4482 53.6637L33.7883 40.6534L20.5595 40.6598L18.0932 54.3723C17.9072 55.4068 16.959 56.0867 15.9754 55.891C14.9919 55.6953 14.3453 54.6982 14.5314 53.6637L16.8699 40.6616L6.6466 40.6666C5.64559 40.6672 4.83325 39.8142 4.83325 38.7612C4.83325 37.7084 5.6439 36.8547 6.64491 36.8541L17.5557 36.8488L19.8412 24.1411L9.06326 24.1464C8.06226 24.1469 7.25038 23.2939 7.24992 22.2411C7.24946 21.1883 8.06057 20.3344 9.06157 20.3339L20.527 20.3283L22.9898 6.63531C23.1758 5.60085 24.124 4.92091 25.1076 5.11656C26.0912 5.31225 26.7377 6.30947 26.5516 7.3439L24.2166 20.3265L37.4452 20.32L39.9066 6.63531C40.0927 5.60085 41.0407 4.92091 42.0243 5.11656ZM36.7596 24.1328L23.5308 24.1393L21.2453 36.847L34.4739 36.8404L36.7596 24.1328Z" fill="white"/>
</svg>
