<svg width="56" height="55" viewBox="0 0 56 55" fill="none" xmlns="http://www.w3.org/2000/svg">
<g clip-path="url(#clip0_85_1316)">
<path d="M28.9013 0H29.1573C29.1704 0.0107422 29.1966 0.0322266 29.2087 0.044043C30.1843 0.264258 31.1894 0.356641 32.1519 0.634863C32.9788 0.869043 33.8287 1.0334 34.6326 1.33955C35.3982 1.62637 36.1923 1.84121 36.9316 2.19248C37.7235 2.55664 38.546 2.86064 39.3029 3.29463C40.0423 3.70928 40.8133 4.07129 41.5144 4.55039C42.1018 4.94463 42.7121 5.30664 43.2852 5.72129C44.1963 6.43457 45.1468 7.10488 45.9791 7.90947C47.0084 8.79463 47.9249 9.79258 48.836 10.7927C49.4901 11.6209 50.2021 12.4094 50.7763 13.2967C51.1668 13.8789 51.5988 14.4375 51.9368 15.053C52.2977 15.7029 52.7035 16.3281 53.0305 16.9952C53.4702 17.9352 53.9548 18.8558 54.2982 19.8354C54.6865 20.755 54.9818 21.7057 55.2563 22.6617C55.5899 23.6672 55.7299 24.7188 56.0001 25.7404V25.8081C54.5673 26.0498 53.1344 26.2872 51.7016 26.53C51.4851 25.6062 51.3396 24.6651 51.0454 23.7606C50.8671 23.1892 50.7293 22.6048 50.5007 22.0494C50.2229 21.3587 49.9866 20.6497 49.6487 19.9837C46.8465 13.8327 41.6074 8.79678 35.2899 6.16816C34.5987 5.84053 33.8582 5.63535 33.1418 5.36787C32.5402 5.13906 31.9058 5.01338 31.2868 4.84365C30.3068 4.55791 29.2896 4.43867 28.2888 4.24639C28.4923 2.83057 28.688 1.41367 28.9013 0Z" fill="white"/>
<path d="M8.09703 5.49355C9.04641 5.16484 10.1303 5.25185 11.0163 5.71806C11.7414 6.08007 12.3233 6.65155 12.8888 7.21445C14.712 9.00409 16.5331 10.797 18.3542 12.5888C18.7053 12.9239 19.0356 13.2784 19.3473 13.649C19.9741 14.4267 20.3777 15.4236 20.2617 16.4269C20.1589 17.4722 19.5388 18.3852 18.8081 19.1179C17.4978 20.4091 16.1777 21.6917 14.8641 22.9797C14.6606 23.1859 14.432 23.433 14.4616 23.7434C14.4856 24.0765 14.6738 24.3676 14.8105 24.6662C16.0048 27.2637 17.8128 29.5292 19.717 31.6583C22.3606 34.5995 25.3641 37.255 28.7645 39.3271C29.5914 39.7794 30.4292 40.2123 31.278 40.6237C31.4836 40.7161 31.7013 40.8268 31.9364 40.7913C32.2044 40.7601 32.398 40.5528 32.5861 40.382C33.915 39.0736 35.2406 37.7609 36.5739 36.4558C37.2542 35.7994 38.0942 35.2516 39.0545 35.1108C40.1166 34.9347 41.2125 35.301 42.047 35.9455C42.408 36.2312 42.7503 36.5395 43.073 36.8661C45.0603 38.818 47.0477 40.7677 49.0372 42.7174C49.6289 43.3125 50.1878 43.9807 50.4372 44.7895C50.7577 45.7488 50.6089 46.8284 50.0948 47.6964C49.8378 48.1733 49.4659 48.5772 49.0919 48.9683C48.3109 49.7417 47.4884 50.4732 46.7327 51.2714C46.1781 51.8353 45.6225 52.3993 45.0603 52.9558C44.0584 53.944 42.7405 54.6133 41.3416 54.8517C41.0517 54.899 40.7608 54.9409 40.4731 55H38.9813C38.3863 54.9055 37.7825 54.8947 37.1897 54.7873C35.1411 54.4994 33.1538 53.886 31.2419 53.1212C30.4314 52.7635 29.6144 52.4176 28.8094 52.0459C27.4969 51.3842 26.1745 50.7364 24.9178 49.9748C23.6731 49.2905 22.5017 48.4902 21.3128 47.7179C20.5122 47.1453 19.717 46.5642 18.923 45.9819C17.8073 45.0742 16.6666 44.1934 15.6198 43.2061C14.6092 42.3382 13.6894 41.3768 12.7488 40.4379C8.91187 36.4106 5.54859 31.9064 3.10844 26.9264C1.86703 24.331 0.776563 21.638 0.238438 18.8106C0.124688 18.2746 0.121406 17.7235 0 17.1886V15.3817C0.0896875 14.8747 0.156406 14.3644 0.258125 13.8596C0.541406 12.7037 1.16594 11.6338 2.03 10.8013C3.34797 9.51757 4.67141 8.24032 5.97516 6.94267C6.58328 6.34003 7.26469 5.7664 8.09703 5.49355Z" fill="white"/>
<path d="M28.3303 10.9882C31.7045 11.4727 34.965 12.8068 37.6206 14.9198C41.3032 17.773 43.8725 21.9914 44.6359 26.5429C43.2118 26.7824 41.7867 27.0177 40.3626 27.2605C40.2117 26.7298 40.145 26.1787 39.9645 25.6545C38.9954 22.2986 36.7281 19.3359 33.7476 17.4475C31.9386 16.2787 29.855 15.5461 27.7178 15.2324C27.9234 13.8177 28.1126 12.4008 28.3303 10.9882Z" fill="white"/>
</g>
<defs>
<clipPath id="clip0_85_1316">
<rect width="56" height="55" fill="white"/>
</clipPath>
</defs>
</svg>
