<?xml version="1.0" encoding="UTF-8" ?>
<!DOCTYPE svg PUBLIC "-//W3C//DTD SVG 1.1//EN" "http://www.w3.org/Graphics/SVG/1.1/DTD/svg11.dtd">
<svg width="512pt" height="512pt" viewBox="0 0 512 512" version="1.1" xmlns="http://www.w3.org/2000/svg">
<g id="#000000ff">
<path fill="#000000" opacity="1.00" d=" M 239.31 45.47 C 274.28 42.69 309.98 48.72 341.98 63.12 C 377.27 78.72 407.99 104.32 429.84 136.11 C 432.77 139.66 434.84 143.79 437.28 147.68 C 455.89 178.79 466.37 214.75 467.08 251.02 C 467.33 258.01 466.82 265.00 466.79 272.00 C 466.82 274.39 466.13 276.71 465.86 279.07 C 463.00 305.17 455.27 330.77 442.98 353.99 C 421.61 394.81 386.52 428.29 344.66 447.58 C 297.07 469.88 240.96 473.30 191.02 456.89 C 147.56 443.00 108.96 414.43 82.91 376.97 C 63.59 349.47 51.12 317.26 46.66 283.96 C 46.11 278.31 44.81 272.75 45.09 267.04 C 42.80 224.50 53.80 181.39 76.22 145.17 C 78.23 141.36 80.77 137.90 83.33 134.44 C 109.35 97.23 147.77 68.96 190.97 55.04 C 206.67 50.08 222.89 46.74 239.31 45.47 M 197.66 66.29 C 199.59 72.24 201.72 78.11 203.72 84.03 C 204.39 85.91 204.90 88.06 203.92 89.95 C 202.75 93.11 198.76 94.68 195.70 93.35 C 193.53 92.52 192.23 90.40 191.61 88.25 C 189.67 82.35 187.55 76.50 185.66 70.58 C 169.12 76.65 153.61 85.32 139.27 95.52 C 143.31 100.88 147.56 106.07 151.58 111.44 C 153.03 113.33 153.44 116.06 152.23 118.17 C 150.97 120.95 147.59 122.35 144.71 121.47 C 142.70 121.01 141.49 119.23 140.27 117.73 C 136.60 112.97 132.91 108.22 129.20 103.49 C 115.62 114.68 103.50 127.73 93.56 142.26 C 98.48 145.38 103.29 148.66 108.22 151.76 C 110.19 153.03 112.49 154.46 112.96 156.96 C 113.83 160.13 111.87 163.68 108.73 164.62 C 106.61 165.36 104.33 164.60 102.56 163.40 C 97.20 159.88 91.84 156.37 86.46 152.89 C 77.41 167.98 70.19 184.20 65.34 201.12 C 71.88 202.82 78.46 204.35 84.97 206.14 C 87.63 206.80 89.63 209.36 89.62 212.10 C 89.87 216.10 85.62 219.53 81.76 218.44 C 75.20 216.94 68.73 215.05 62.17 213.54 C 58.42 230.73 57.01 248.41 57.83 265.99 C 64.55 265.46 71.27 264.76 78.00 264.37 C 80.27 264.14 82.59 265.31 83.77 267.26 C 85.68 270.01 84.81 274.18 82.01 275.99 C 80.55 277.09 78.65 277.09 76.92 277.30 C 70.93 277.77 64.94 278.30 58.94 278.75 C 60.90 296.24 65.35 313.42 71.81 329.79 C 77.36 327.42 82.89 325.00 88.40 322.52 C 89.87 321.91 91.36 321.11 93.00 321.13 C 96.56 321.04 99.74 324.48 99.34 328.03 C 99.21 330.40 97.52 332.46 95.41 333.41 C 89.30 336.21 83.08 338.76 76.98 341.56 C 83.98 356.02 92.60 369.70 102.84 382.08 C 127.99 412.71 162.54 435.51 200.64 446.49 C 234.78 456.47 271.62 457.00 306.03 447.95 C 337.93 439.71 367.66 423.28 391.68 400.73 C 409.65 383.93 424.36 363.69 435.02 341.52 C 428.89 338.78 422.71 336.17 416.60 333.40 C 414.13 332.33 412.34 329.69 412.66 326.96 C 412.89 322.91 417.54 319.86 421.31 321.56 C 427.60 324.23 433.87 326.95 440.07 329.82 C 446.77 313.53 451.00 296.24 453.05 278.76 C 447.06 278.29 441.06 277.78 435.07 277.30 C 433.34 277.09 431.44 277.09 429.99 275.99 C 427.18 274.17 426.35 270.02 428.23 267.26 C 429.41 265.32 431.74 264.15 434.01 264.39 C 440.73 264.84 447.43 265.50 454.15 266.03 C 454.97 248.44 453.48 230.77 449.81 213.55 C 443.25 215.04 436.80 216.95 430.24 218.44 C 427.09 219.32 423.70 217.27 422.67 214.24 C 421.53 210.94 423.57 206.94 427.02 206.14 C 433.50 204.32 440.11 202.97 446.57 201.05 C 441.83 184.14 434.46 168.07 425.57 152.96 C 421.11 155.65 416.82 158.60 412.45 161.42 C 410.39 162.69 408.47 164.42 406.02 164.83 C 402.54 165.46 398.98 162.52 398.87 159.00 C 398.61 156.59 399.92 154.23 401.98 153.01 C 407.41 149.38 412.93 145.90 418.36 142.27 C 408.39 127.80 396.25 114.85 382.80 103.56 C 378.57 108.76 374.60 114.18 370.36 119.38 C 368.35 122.08 364.13 122.45 361.54 120.40 C 359.08 118.47 358.20 114.68 360.05 112.04 C 364.06 106.43 368.56 101.18 372.64 95.62 C 358.40 85.29 342.85 76.71 326.35 70.59 C 324.43 76.50 322.34 82.35 320.39 88.25 C 319.80 90.14 318.79 92.02 317.00 93.01 C 314.09 94.74 309.93 93.60 308.34 90.59 C 307.01 88.61 307.49 86.11 308.26 84.03 C 310.30 78.14 312.36 72.27 314.33 66.36 C 297.48 61.29 279.99 58.26 262.39 57.75 C 262.41 63.83 262.39 69.92 262.42 76.00 C 262.43 78.23 262.24 80.83 260.40 82.36 C 258.08 84.72 253.92 84.72 251.60 82.36 C 249.73 80.83 249.56 78.22 249.58 75.99 C 249.61 69.90 249.59 63.80 249.61 57.70 C 232.00 58.25 214.53 61.27 197.66 66.29 Z" />
<path fill="#000000" opacity="1.00" d=" M 249.79 127.13 C 250.45 124.38 253.17 122.24 256.02 122.32 C 259.51 122.23 262.67 125.50 262.38 129.02 C 262.43 162.27 262.38 195.53 262.40 228.79 C 272.86 230.61 282.51 236.76 288.31 245.68 C 294.94 255.54 296.52 268.48 292.60 279.68 C 289.37 289.03 282.45 297.07 273.60 301.51 C 263.43 306.80 250.85 307.21 240.39 302.49 C 231.80 298.74 224.68 291.76 220.81 283.22 C 215.42 271.80 216.22 257.74 222.85 247.00 C 228.57 237.42 238.62 230.67 249.61 228.78 C 249.59 197.52 249.61 166.26 249.60 135.00 C 249.62 132.38 249.45 129.74 249.79 127.13 M 252.28 241.40 C 243.45 242.64 235.44 248.73 232.12 257.05 C 229.32 263.57 229.41 271.22 232.36 277.67 C 235.55 284.91 242.26 290.43 249.96 292.25 C 259.01 294.55 269.15 291.33 275.31 284.33 C 279.31 279.88 281.61 274.00 281.95 268.05 C 282.27 259.04 277.63 249.92 269.90 245.18 C 264.73 241.84 258.37 240.53 252.28 241.40 Z" />
<path fill="#000000" opacity="1.00" d=" M 163.36 324.47 C 164.74 323.58 166.43 323.68 168.00 323.65 C 227.00 323.69 285.99 323.65 344.99 323.67 C 348.52 323.31 351.96 326.36 351.91 329.92 C 352.03 346.63 351.94 363.34 351.95 380.04 C 352.32 383.88 348.90 387.48 345.01 387.06 C 285.67 387.09 226.34 387.09 167.00 387.06 C 163.11 387.48 159.66 383.88 160.05 380.03 C 160.01 363.68 160.05 347.33 160.03 330.98 C 159.79 328.38 161.07 325.75 163.36 324.47 M 172.87 336.52 C 172.87 349.12 172.83 361.72 172.89 374.33 C 228.30 374.34 283.70 374.34 339.11 374.33 C 339.16 361.72 339.15 349.11 339.12 336.50 C 283.70 336.46 228.28 336.42 172.87 336.52 Z" />
</g>
</svg>
