<svg width="59" height="50" viewBox="0 0 59 50" fill="none" xmlns="http://www.w3.org/2000/svg">
<path d="M54.0783 4.77959H41.7069C41.0579 4.77959 40.5316 5.22549 40.5316 5.77558V24.1103H32.4679V15.972V0.995996C32.4679 0.445898 31.9417 0 31.2927 0H24.2228C23.5738 0 23.0475 0.445898 23.0475 0.995996V14.9759H20.4504V9.46211C20.4504 8.91201 19.9241 8.46611 19.2751 8.46611C18.6261 8.46611 18.0998 8.91201 18.0998 9.46211V14.9759H16.8283C16.1793 14.9759 15.6531 15.4218 15.6531 15.9719V20.8175H9.63759V17.1314C9.63759 16.5813 9.11132 16.1354 8.46232 16.1354C7.81332 16.1354 7.28704 16.5813 7.28704 17.1314V20.8176H4.92186C4.27286 20.8176 3.74658 21.2635 3.74658 21.8136V49.0039C3.74658 49.554 4.27286 49.9999 4.92186 49.9999H54.0783C54.7273 49.9999 55.2536 49.554 55.2536 49.0039V5.77558C55.2536 5.22549 54.7273 4.77959 54.0783 4.77959ZM15.6529 48.008H6.09713V22.8097H15.6529V48.008ZM30.1174 48.008H18.0035V16.968H30.1173V48.008H30.1174ZM30.1174 14.9759H25.3981V1.99199H30.1174V14.9759ZM40.5307 48.008H32.4679V26.1021H40.5307V48.008ZM52.903 48.008H42.8823V6.77158H52.903V48.008Z" fill="white"/>
<path d="M21.4653 19.4368C20.8163 19.4368 20.29 19.8827 20.29 20.4328V21.7553C20.29 22.3054 20.8162 22.7513 21.4653 22.7513C22.1143 22.7513 22.6406 22.3054 22.6406 21.7553V20.4328C22.6406 19.8828 22.1143 19.4368 21.4653 19.4368Z" fill="white"/>
<path d="M26.4787 19.4368C25.8297 19.4368 25.3035 19.8827 25.3035 20.4328V21.7553C25.3035 22.3054 25.8297 22.7513 26.4787 22.7513C27.1277 22.7513 27.654 22.3054 27.654 21.7553V20.4328C27.654 19.8828 27.1277 19.4368 26.4787 19.4368Z" fill="white"/>
<path d="M27.7319 10.3026C27.0829 10.3026 26.5566 10.7485 26.5566 11.2986V12.6211C26.5566 13.1712 27.0829 13.6171 27.7319 13.6171C28.3809 13.6171 28.9072 13.1712 28.9072 12.6211V11.2986C28.9073 10.7485 28.381 10.3026 27.7319 10.3026Z" fill="white"/>
<path d="M27.7319 5.09827C27.0829 5.09827 26.5566 5.54416 26.5566 6.09426V7.41672C26.5566 7.96682 27.0829 8.41272 27.7319 8.41272C28.3809 8.41272 28.9072 7.96682 28.9072 7.41672V6.09426C28.9073 5.54416 28.381 5.09827 27.7319 5.09827Z" fill="white"/>
<path d="M21.4653 25.2355C20.8163 25.2355 20.29 25.6814 20.29 26.2315V27.554C20.29 28.1041 20.8162 28.55 21.4653 28.55C22.1143 28.55 22.6406 28.1041 22.6406 27.554V26.2315C22.6406 25.6814 22.1143 25.2355 21.4653 25.2355Z" fill="white"/>
<path d="M26.4787 25.2355C25.8297 25.2355 25.3035 25.6814 25.3035 26.2315V27.554C25.3035 28.1041 25.8297 28.55 26.4787 28.55C27.1277 28.55 27.654 28.1041 27.654 27.554V26.2315C27.654 25.6814 27.1277 25.2355 26.4787 25.2355Z" fill="white"/>
<path d="M21.4653 30.6271C20.8163 30.6271 20.29 31.073 20.29 31.6231V32.9457C20.29 33.4958 20.8162 33.9417 21.4653 33.9417C22.1143 33.9417 22.6406 33.4958 22.6406 32.9457V31.6232C22.6406 31.0731 22.1143 30.6271 21.4653 30.6271Z" fill="white"/>
<path d="M26.4787 30.6271C25.8297 30.6271 25.3035 31.073 25.3035 31.6231V32.9457C25.3035 33.4958 25.8297 33.9417 26.4787 33.9417C27.1277 33.9417 27.654 33.4958 27.654 32.9457V31.6232C27.654 31.0731 27.1277 30.6271 26.4787 30.6271Z" fill="white"/>
<path d="M21.4653 36.4259C20.8163 36.4259 20.29 36.8718 20.29 37.4219V38.7445C20.29 39.2946 20.8162 39.7405 21.4653 39.7405C22.1143 39.7405 22.6406 39.2946 22.6406 38.7445V37.4219C22.6406 36.8718 22.1143 36.4259 21.4653 36.4259Z" fill="white"/>
<path d="M26.4787 36.4259C25.8297 36.4259 25.3035 36.8718 25.3035 37.4219V38.7445C25.3035 39.2946 25.8297 39.7405 26.4787 39.7405C27.1277 39.7405 27.654 39.2946 27.654 38.7445V37.4219C27.654 36.8718 27.1277 36.4259 26.4787 36.4259Z" fill="white"/>
<path d="M21.4653 42.2245C20.8163 42.2245 20.29 42.6704 20.29 43.2205V44.543C20.29 45.0931 20.8162 45.539 21.4653 45.539C22.1143 45.539 22.6406 45.0931 22.6406 44.543V43.2206C22.6406 42.6704 22.1143 42.2245 21.4653 42.2245Z" fill="white"/>
<path d="M26.4787 42.2245C25.8297 42.2245 25.3035 42.6704 25.3035 43.2205V44.543C25.3035 45.0931 25.8297 45.539 26.4787 45.539C27.1277 45.539 27.654 45.0931 27.654 44.543V43.2206C27.654 42.6704 27.1277 42.2245 26.4787 42.2245Z" fill="white"/>
<path d="M45.9048 19.4368C45.2558 19.4368 44.7295 19.8827 44.7295 20.4328V21.7553C44.7295 22.3054 45.2558 22.7513 45.9048 22.7513C46.5538 22.7513 47.08 22.3054 47.08 21.7553V20.4328C47.08 19.8828 46.5538 19.4368 45.9048 19.4368Z" fill="white"/>
<path d="M50.2915 19.4368C49.6425 19.4368 49.1162 19.8827 49.1162 20.4328V21.7553C49.1162 22.3054 49.6425 22.7513 50.2915 22.7513C50.9405 22.7513 51.4668 22.3054 51.4668 21.7553V20.4328C51.4668 19.8828 50.9405 19.4368 50.2915 19.4368Z" fill="white"/>
<path d="M45.9048 25.2355C45.2558 25.2355 44.7295 25.6814 44.7295 26.2315V27.554C44.7295 28.1041 45.2558 28.55 45.9048 28.55C46.5538 28.55 47.08 28.1041 47.08 27.554V26.2315C47.08 25.6814 46.5538 25.2355 45.9048 25.2355Z" fill="white"/>
<path d="M50.2915 25.2355C49.6425 25.2355 49.1162 25.6814 49.1162 26.2315V27.554C49.1162 28.1041 49.6425 28.55 50.2915 28.55C50.9405 28.55 51.4668 28.1041 51.4668 27.554V26.2315C51.4668 25.6814 50.9405 25.2355 50.2915 25.2355Z" fill="white"/>
<path d="M45.9048 30.6271C45.2558 30.6271 44.7295 31.073 44.7295 31.6231V32.9457C44.7295 33.4958 45.2558 33.9417 45.9048 33.9417C46.5538 33.9417 47.08 33.4958 47.08 32.9457V31.6232C47.08 31.0731 46.5538 30.6271 45.9048 30.6271Z" fill="white"/>
<path d="M50.2915 30.6271C49.6425 30.6271 49.1162 31.073 49.1162 31.6231V32.9457C49.1162 33.4958 49.6425 33.9417 50.2915 33.9417C50.9405 33.9417 51.4668 33.4958 51.4668 32.9457V31.6232C51.4668 31.0731 50.9405 30.6271 50.2915 30.6271Z" fill="white"/>
<path d="M45.9048 8.36798C45.2558 8.36798 44.7295 8.81388 44.7295 9.36398V10.6865C44.7295 11.2366 45.2558 11.6825 45.9048 11.6825C46.5538 11.6825 47.08 11.2366 47.08 10.6865V9.36398C47.08 8.81388 46.5538 8.36798 45.9048 8.36798Z" fill="white"/>
<path d="M50.2915 8.36798C49.6425 8.36798 49.1162 8.81388 49.1162 9.36398V10.6865C49.1162 11.2366 49.6425 11.6825 50.2915 11.6825C50.9405 11.6825 51.4668 11.2366 51.4668 10.6865V9.36398C51.4668 8.81388 50.9405 8.36798 50.2915 8.36798Z" fill="white"/>
<path d="M45.9048 13.7596C45.2558 13.7596 44.7295 14.2055 44.7295 14.7556V16.0781C44.7295 16.6282 45.2558 17.0741 45.9048 17.0741C46.5538 17.0741 47.08 16.6282 47.08 16.0781V14.7556C47.08 14.2055 46.5538 13.7596 45.9048 13.7596Z" fill="white"/>
<path d="M50.2915 13.7596C49.6425 13.7596 49.1162 14.2055 49.1162 14.7556V16.0781C49.1162 16.6282 49.6425 17.0741 50.2915 17.0741C50.9405 17.0741 51.4668 16.6282 51.4668 16.0781V14.7556C51.4668 14.2055 50.9405 13.7596 50.2915 13.7596Z" fill="white"/>
<path d="M45.9048 36.4259C45.2558 36.4259 44.7295 36.8718 44.7295 37.4219V38.7445C44.7295 39.2946 45.2558 39.7405 45.9048 39.7405C46.5538 39.7405 47.08 39.2946 47.08 38.7445V37.4219C47.08 36.8718 46.5538 36.4259 45.9048 36.4259Z" fill="white"/>
<path d="M50.2915 36.4259C49.6425 36.4259 49.1162 36.8718 49.1162 37.4219V38.7445C49.1162 39.2946 49.6425 39.7405 50.2915 39.7405C50.9405 39.7405 51.4668 39.2946 51.4668 38.7445V37.4219C51.4668 36.8718 50.9405 36.4259 50.2915 36.4259Z" fill="white"/>
<path d="M45.9048 42.2245C45.2558 42.2245 44.7295 42.6704 44.7295 43.2205V44.543C44.7295 45.0931 45.2558 45.539 45.9048 45.539C46.5538 45.539 47.08 45.0931 47.08 44.543V43.2206C47.08 42.6704 46.5538 42.2245 45.9048 42.2245Z" fill="white"/>
<path d="M50.2915 42.2245C49.6425 42.2245 49.1162 42.6704 49.1162 43.2205V44.543C49.1162 45.0931 49.6425 45.539 50.2915 45.539C50.9405 45.539 51.4668 45.0931 51.4668 44.543V43.2206C51.4668 42.6704 50.9405 42.2245 50.2915 42.2245Z" fill="white"/>
<path d="M13.0681 24.7474H8.80711C8.15811 24.7474 7.63184 25.1933 7.63184 25.7434C7.63184 26.2935 8.15811 26.7394 8.80711 26.7394H13.0682C13.7172 26.7394 14.2435 26.2935 14.2435 25.7434C14.2435 25.1933 13.7172 24.7474 13.0681 24.7474Z" fill="white"/>
<path d="M13.0681 28.6063H8.80711C8.15811 28.6063 7.63184 29.0522 7.63184 29.6023C7.63184 30.1524 8.15811 30.5983 8.80711 30.5983H13.0682C13.7172 30.5983 14.2435 30.1524 14.2435 29.6023C14.2435 29.0522 13.7172 28.6063 13.0681 28.6063Z" fill="white"/>
<path d="M13.0681 32.5897H8.80711C8.15811 32.5897 7.63184 33.0356 7.63184 33.5857C7.63184 34.1358 8.15811 34.5817 8.80711 34.5817H13.0682C13.7172 34.5817 14.2435 34.1358 14.2435 33.5857C14.2435 33.0356 13.7172 32.5897 13.0681 32.5897Z" fill="white"/>
<path d="M13.0681 36.4484H8.80711C8.15811 36.4484 7.63184 36.8943 7.63184 37.4444C7.63184 37.9945 8.15811 38.4404 8.80711 38.4404H13.0682C13.7172 38.4404 14.2435 37.9945 14.2435 37.4444C14.2435 36.8943 13.7172 36.4484 13.0681 36.4484Z" fill="white"/>
<path d="M13.0681 40.4318H8.80711C8.15811 40.4318 7.63184 40.8777 7.63184 41.4278C7.63184 41.9779 8.15811 42.4238 8.80711 42.4238H13.0682C13.7172 42.4238 14.2435 41.9779 14.2435 41.4278C14.2435 40.8778 13.7172 40.4318 13.0681 40.4318Z" fill="white"/>
<path d="M13.0681 44.2905H8.80711C8.15811 44.2905 7.63184 44.7364 7.63184 45.2865C7.63184 45.8366 8.15811 46.2825 8.80711 46.2825H13.0682C13.7172 46.2825 14.2435 45.8366 14.2435 45.2865C14.2435 44.7364 13.7172 44.2905 13.0681 44.2905Z" fill="white"/>
<path d="M37.8837 27.509H34.8757C34.2267 27.509 33.7004 27.9549 33.7004 28.505C33.7004 29.0551 34.2267 29.501 34.8757 29.501H37.8837C38.5327 29.501 39.059 29.0551 39.059 28.505C39.059 27.9549 38.5327 27.509 37.8837 27.509Z" fill="white"/>
<path d="M37.8837 32.1823H34.8757C34.2267 32.1823 33.7004 32.6282 33.7004 33.1783C33.7004 33.7284 34.2267 34.1743 34.8757 34.1743H37.8837C38.5327 34.1743 39.059 33.7284 39.059 33.1783C39.059 32.6283 38.5327 32.1823 37.8837 32.1823Z" fill="white"/>
<path d="M37.8837 36.9618H34.8757C34.2267 36.9618 33.7004 37.4077 33.7004 37.9578C33.7004 38.5079 34.2267 38.9538 34.8757 38.9538H37.8837C38.5327 38.9538 39.059 38.5079 39.059 37.9578C39.059 37.4078 38.5327 36.9618 37.8837 36.9618Z" fill="white"/>
<path d="M37.8837 41.8477H34.8757C34.2267 41.8477 33.7004 42.2936 33.7004 42.8437C33.7004 43.3938 34.2267 43.8396 34.8757 43.8396H37.8837C38.5327 43.8396 39.059 43.3938 39.059 42.8437C39.059 42.2936 38.5327 41.8477 37.8837 41.8477Z" fill="white"/>
<path d="M19.2749 4.2829C18.6259 4.2829 18.0996 4.7288 18.0996 5.27889V6.47411C18.0996 7.02421 18.6259 7.47011 19.2749 7.47011C19.9239 7.47011 20.4502 7.02421 20.4502 6.47411V5.27889C20.4502 4.7288 19.9239 4.2829 19.2749 4.2829Z" fill="white"/>
</svg>
