<svg width="54" height="55" viewBox="0 0 54 55" fill="none" xmlns="http://www.w3.org/2000/svg">
<g clip-path="url(#clip0_86_13)">
<path d="M26.0433 0H27.1125C29.4228 0.109225 31.7175 0.757151 33.7048 1.97241C35.9579 3.32234 37.818 5.33823 39.0091 7.70724C40.1534 9.97021 40.6713 12.5566 40.4868 15.0942C40.2805 18.2713 38.9487 21.3508 36.8103 23.671C34.106 26.6752 30.0627 28.3825 26.06 28.1641C22.9649 28.0443 19.9366 26.7876 17.6085 24.7156C15.9172 23.2214 14.5885 21.3052 13.7777 19.1811C12.6012 16.1366 12.5303 12.668 13.5756 9.57467C14.2185 7.65846 15.2711 5.88541 16.6435 4.41883C18.488 2.4337 20.9088 1.00423 23.5266 0.384938C24.3509 0.174972 25.1992 0.090137 26.0433 0Z" fill="white"/>
<path d="M15.6379 29.3528C16.0798 29.2691 16.5341 29.1556 16.9843 29.2479C17.5669 29.3327 18.0348 29.7219 18.5089 30.0432C21.9791 32.4514 26.4966 33.1598 30.539 32.0421C32.0208 31.6444 33.436 30.9933 34.7178 30.1386C35.1701 29.8406 35.5973 29.4695 36.1288 29.3253C36.5727 29.2001 37.0427 29.2086 37.4919 29.3062C38.1161 29.444 38.756 29.5183 39.3656 29.7229C39.9367 29.9106 40.5223 30.057 41.0715 30.3072C41.6238 30.5607 42.1991 30.7675 42.7222 31.0813C43.2255 31.3825 43.757 31.6381 44.228 31.9912C44.5094 32.198 44.7939 32.3984 45.0774 32.601C45.5046 32.9021 45.8725 33.2786 46.2706 33.6179C46.7989 34.0665 47.2418 34.6062 47.717 35.111C48.0599 35.4769 48.3339 35.9 48.6382 36.2987C49.3906 37.2817 49.9971 38.3729 50.4754 39.5192C50.588 39.7939 50.5703 40.1194 50.4233 40.3782C49.3343 42.2488 48.0515 44.0144 46.5436 45.5595C45.4348 46.7684 44.2187 47.8723 42.9181 48.8627C42.1636 49.3728 41.4467 49.9444 40.6463 50.3834C40.044 50.7217 39.4646 51.1045 38.8331 51.3866C38.1567 51.6973 37.5033 52.0599 36.801 52.306C36.2132 52.518 35.6401 52.7704 35.0429 52.9549C34.3989 53.1363 33.7601 53.3388 33.113 53.5074C32.0521 53.7248 30.9964 53.9836 29.9147 54.0726C29.1123 54.2052 28.2984 54.2084 27.4919 54.2943H25.9693C25.0919 54.2211 24.2103 54.2147 23.3391 54.0737C22.2365 53.9793 21.1579 53.7216 20.0762 53.4958C19.005 53.1904 17.9233 52.9104 16.8916 52.4777C16.0881 52.2031 15.3232 51.8298 14.5604 51.4576C13.8069 51.1257 13.116 50.6697 12.3991 50.2678C11.9353 50.0091 11.5101 49.6888 11.0745 49.3866C9.68959 48.4619 8.46199 47.3177 7.26045 46.1639C6.63831 45.4863 5.95886 44.8596 5.4128 44.1141C4.52076 43.0229 3.69541 41.8745 2.98887 40.6507C2.75127 40.2414 2.74501 39.7143 2.98157 39.3029C3.62663 37.8194 4.52493 36.4662 5.53368 35.216C6.0266 34.6921 6.47887 34.1248 7.02493 33.6561C9.40823 31.4196 12.4397 29.9 15.6379 29.3528Z" fill="white"/>
</g>
<defs>
<clipPath id="clip0_86_13">
<rect width="53.3557" height="54.2943" fill="white"/>
</clipPath>
</defs>
</svg>
