<svg width="80" height="89" viewBox="0 0 80 89" fill="none" xmlns="http://www.w3.org/2000/svg">
<path d="M38.7588 0H40.5423C44.396 0.179043 48.2237 1.24113 51.5386 3.2332C55.2968 5.44603 58.3996 8.75051 60.3865 12.6338C62.2951 16.3433 63.159 20.583 62.8514 24.7427C62.5072 29.9506 60.2856 34.9986 56.7187 38.8019C52.2079 43.7265 45.4633 46.5251 38.7866 46.167C33.6239 45.9706 28.5725 43.9107 24.6891 40.5141C21.8679 38.0649 19.6516 34.9238 18.2992 31.442C16.3367 26.4514 16.2185 20.7655 17.962 15.6949C19.0345 12.5539 20.7902 9.64746 23.0795 7.24342C26.1562 3.98935 30.1943 1.64615 34.5608 0.630996C35.9358 0.286816 37.3508 0.147754 38.7588 0Z" fill="#23228A"/>
<path d="M21.402 48.1154C22.139 47.9781 22.8969 47.7921 23.6479 47.9433C24.6196 48.0824 25.4 48.7203 26.191 49.247C31.9794 53.1947 39.5149 54.3558 46.2577 52.5237C48.7295 51.8718 51.0901 50.8045 53.2282 49.4035C53.9826 48.915 54.6953 48.3066 55.5818 48.0702C56.3223 47.8651 57.1063 47.879 57.8555 48.0389C58.8967 48.2649 59.964 48.3866 60.9809 48.7221C61.9335 49.0298 62.9104 49.2696 63.8265 49.6799C64.7478 50.0953 65.7073 50.4343 66.5799 50.9488C67.4195 51.4425 68.306 51.8614 69.0917 52.4403C69.5611 52.7792 70.0356 53.1078 70.5084 53.4398C71.2211 53.9334 71.8347 54.5505 72.4988 55.1068C73.3801 55.8421 74.1188 56.7269 74.9115 57.5543C75.4834 58.154 75.9406 58.8476 76.4481 59.5012C77.7032 61.1125 78.7149 62.9012 79.5127 64.7803C79.7005 65.2305 79.6709 65.7642 79.4258 66.1883C77.6093 69.2547 75.4695 72.1489 72.9542 74.6816C71.1047 76.6632 69.0761 78.4728 66.9067 80.0963C65.6482 80.9324 64.4523 81.8694 63.1173 82.589C62.1125 83.1435 61.1461 83.771 60.0927 84.2334C58.9645 84.7427 57.8746 85.3372 56.703 85.7405C55.7226 86.0882 54.7666 86.5019 53.7705 86.8043C52.6963 87.1016 51.6307 87.4336 50.5512 87.71C48.7817 88.0663 47.0208 88.4905 45.2164 88.6365C43.878 88.8538 42.5204 88.859 41.1749 88.9998H38.6353C37.1717 88.8798 35.7011 88.8694 34.2479 88.6382C32.4088 88.4835 30.6097 88.0611 28.8053 87.6909C27.0184 87.1902 25.214 86.7313 23.4931 86.0221C22.1529 85.5719 20.877 84.96 19.6046 84.3499C18.3478 83.8058 17.1954 83.0583 15.9994 82.3995C15.2259 81.9754 14.5167 81.4504 13.7901 80.955C11.4799 79.4392 9.43219 77.5636 7.42795 75.6724C6.3902 74.5616 5.25684 73.5343 4.34598 72.3123C2.85801 70.5236 1.48129 68.641 0.302739 66.6351C-0.0935894 65.9641 -0.104019 65.1002 0.290571 64.4257C1.36657 61.9939 2.86496 59.7758 4.54762 57.7264C5.36983 56.8677 6.12424 55.9377 7.0351 55.1694C11.0106 51.5033 16.0672 49.0124 21.402 48.1154Z" fill="#23228A"/>
</svg>
