<svg width="97" height="95" viewBox="0 0 97 95" fill="none" xmlns="http://www.w3.org/2000/svg">
<g clip-path="url(#clip0_108_15)">
<path d="M11.5261 1.20272L10.9123 2.43589L11.3064 2.66426C11.5261 2.78606 14.3831 4.43029 17.6568 6.31049L23.6057 9.72836L23.5905 10.7027C23.5678 11.8978 23.4086 13.0701 23.1131 14.2957C22.1734 18.1627 19.8696 21.2608 16.3534 23.3998L15.7699 23.7576L9.64676 20.2408C6.28207 18.3073 3.41754 16.6631 3.28113 16.5793L3.03863 16.4347L2.72793 17.0437L2.4248 17.6603L2.76582 18.6194C4.06168 22.1895 6.05473 25.4171 8.28269 27.5333C11.8368 30.9054 16.5201 32.6639 22.5068 32.8542C24.1134 32.9075 24.4696 32.976 25.3638 33.4555C27.0992 34.3766 29.3196 36.1198 32.6615 39.1647C34.45 40.7937 35.3366 41.6538 38.1253 44.4399L40.6034 46.9062L45.4686 42.0192L50.3413 37.1398L47.7268 34.4984C40.7171 27.4191 36.6097 22.6615 35.1017 19.8678C34.6394 19.0076 34.5788 18.6727 34.5257 16.861C34.4196 13.1158 33.9195 10.5429 32.8813 8.30489C31.8658 6.1278 30.1228 4.24759 27.9782 3.02964C24.7045 1.16466 20.2561 0.213139 13.9284 0.0304451L12.14 -0.0228386L11.5261 1.20272Z" fill="#23228A"/>
<path d="M81.8814 7.27723C78.5925 9.59133 75.8492 11.5629 75.7962 11.6618C75.7431 11.7608 75.4476 12.8798 75.1293 14.1586L74.561 16.4727L56.9797 34.1178L39.406 51.7628L36.981 50.2404L34.556 48.7179L33.3435 49.9359C32.1614 51.1234 32.131 51.1691 32.131 51.4812C32.131 51.9455 32.0022 52.7828 31.8279 53.4527C31.1231 56.2083 28.7891 58.8421 25.5684 60.494C23.9921 61.3085 22.2719 61.8718 20.779 62.0545L19.9985 62.1534L9.98775 72.2015L-0.0229492 82.242L0.0300977 82.8966C0.234707 85.6522 1.80338 88.6286 4.32689 91.0797C6.50182 93.1883 8.88135 94.4748 11.4049 94.8858C11.7838 94.9467 12.2385 95 12.4203 95H12.7538L22.7493 84.9595C31.9946 75.6574 32.7373 74.8962 32.7373 74.6603C32.7373 73.8381 33.1541 72.1254 33.6618 70.8313C35.2456 66.8273 38.1329 63.889 41.3536 63.0288C41.6795 62.9375 42.3388 62.8309 42.8313 62.7776L43.7104 62.6939L44.9002 61.5064L46.0899 60.3113L44.5667 57.8678L43.0435 55.4167L60.549 37.8401C70.1808 28.1803 78.1075 20.2255 78.1681 20.1723C78.2288 20.119 79.3428 19.8145 80.6386 19.4872C81.9345 19.1598 83.0409 18.8477 83.0939 18.7868C83.147 18.7336 85.0718 15.9932 87.368 12.6971L91.536 6.70631L89.9597 5.12298C89.0882 4.25519 88.2622 3.43307 88.1258 3.30367L87.8681 3.06008L81.8814 7.27723Z" fill="#23228A"/>
<path d="M52.7208 49.3421L47.8784 54.2215L51.1749 57.5404C55.8279 62.2372 58.1165 64.6578 60.4354 67.3678C62.9513 70.3061 64.5276 72.6126 64.7852 73.762C64.8231 73.9523 64.8762 74.8201 64.9065 75.7031C65.0504 81.2448 66.1644 84.7235 68.6046 87.2888C69.6958 88.4383 70.734 89.1995 72.2194 89.9379C75.4401 91.5517 79.5853 92.3585 85.4962 92.5336L87.2847 92.5869L87.8985 91.3614L88.5123 90.1282L88.1183 89.8998C87.8985 89.778 85.0415 88.1338 81.7678 86.2536L75.819 82.8357L75.8341 81.8994C75.9251 76.5176 78.5092 71.9275 82.9954 69.2099L83.6547 68.8065L89.7779 72.3233C93.1426 74.2568 96.0071 75.901 96.1435 75.9848L96.386 76.1294L96.6891 75.5204L96.9922 74.919L96.7801 74.2796C96.2496 72.7115 95.2796 70.6182 94.4005 69.1566C91.2708 63.9499 86.5723 60.9126 80.2143 59.9916C78.9942 59.8165 77.2891 59.6795 76.213 59.6795C75.0612 59.6795 74.2503 59.3598 72.6362 58.2864C70.0672 56.5661 66.7631 53.5897 60.7006 47.5228C59.0107 45.8405 57.6087 44.4551 57.5936 44.4627C57.5708 44.4627 55.3808 46.6626 52.7208 49.3421Z" fill="#23228A"/>
</g>
<defs>
<clipPath id="clip0_108_15">
<rect width="97" height="95" fill="white"/>
</clipPath>
</defs>
</svg>
